<?xml version="1.0" encoding="utf-8"?>
<!-- Generator: Adobe Illustrator 27.4.0, SVG Export Plug-In . SVG Version: 6.00 Build 0)  -->
<svg version="1.1" id="Capa_1" xmlns="http://www.w3.org/2000/svg" xmlns:xlink="http://www.w3.org/1999/xlink" x="0px" y="0px"
	 viewBox="0 0 300 66.5" style="enable-background:new 0 0 300 66.5;" xml:space="preserve">
<style type="text/css">
	.st0{fill:#8C98A4;}
</style>
<g>
	<path class="st0" d="M210.2,57.1l1-1.2c1.5,1.5,3.7,2.5,6.3,2.5c2.8,0,4.7-1.2,4.7-3.1s-1-2.8-4.7-4.1c-3.7-1.2-5.9-2.2-5.9-5.3
		c0-2.5,2.2-4.7,5.6-4.7c2.8,0,4.7,1,6.6,2.5l-1,1.2c-1.5-1.5-3.4-2.2-5.6-2.2c-2.5,0-3.7,1.2-3.7,2.8c0,1.9,1.2,2.8,4.9,3.7
		c3.7,1.2,5.6,2.5,5.6,5.3c0,2.9-2.5,4.7-6.3,4.7C214.3,59.9,212.2,59,210.2,57.1"/>
	<path class="st0" d="M226.1,53.3c0-4.4,2.8-6.6,5.6-6.6c2.8,0,5.3,2.2,5.3,6.6v0.3h-9.3c0,3.1,1.9,4.7,4.4,4.7
		c1.5,0,2.8-0.7,4.1-1.9l1,1.2c-1.5,1.5-2.8,2.2-4.9,2.2C228.7,59.9,226.1,57.7,226.1,53.3 M235.1,52.4c-0.3-2.5-1.2-4.1-3.7-4.1
		c-1.9,0-3.7,1.2-3.7,4.1H235.1z"/>
	<path class="st0" d="M238.6,61.1c0-1.2,1-2.2,2.5-2.8c-0.7-0.3-1.2-1-1.2-1.5c0-0.7,0.7-1.5,1.5-1.9c-1.2-0.7-1.9-1.9-1.9-3.7
		c0-2.8,2.2-4.7,4.9-4.7c1.5,0,2.8,0.7,3.7,1.2c0.7-0.7,1.9-1,2.8-1.2l0.3,1.5c-0.7,0-1.5,0-2.5,0.3c0.7,0.7,0.7,1.5,0.7,2.5
		c0,2.8-2.2,4.4-4.9,4.4c-0.7,0-1.5,0-1.9-0.3c-0.7,0.3-1,0.7-1,1.2c0,0.7,0.3,1,1.9,1l2.8,0.3c2.8,0.3,4.7,1.2,4.7,3.1
		c0,2.2-2.5,3.4-5.9,3.4C240.5,64.6,238.6,63.3,238.6,61.1 M248.9,61.1c0-1.2-1-1.9-3.4-1.9L243,59c-0.3,0-0.3,0-0.7,0
		c-1.5,0.3-2.2,1.2-2.2,2.2c0,1.2,1.5,2.2,4.7,2.2C247.3,62.9,248.9,62.4,248.9,61.1 M248,51.4c0-1.9-1.2-3.1-3.4-3.1
		c-2.2,0-3.4,1.2-3.4,3.1s1.2,3.1,3.4,3.1C246.4,54.6,248,53.3,248,51.4"/>
	<path class="st0" d="M253.2,56.1v-9h1.5v8.7c0,1.9,0.7,2.5,2.5,2.5c1.5,0,3.1-1,4.4-2.2v-9.3h1.9v12.4h-1.5l-0.3-1.9
		c-1.2,1.2-2.8,2.2-4.9,2.2C254.5,59.9,253.2,58.7,253.2,56.1"/>
	<path class="st0" d="M267.3,59.5V47.1h1.5l0.3,2.5l0,0c1-1.5,2.5-2.8,4.9-2.8h0.3l0.3,1.5h-0.7c-2.2,0-3.7,1.2-4.7,3.1v8.1
		C269.3,59.5,267.3,59.5,267.3,59.5z"/>
	<path class="st0" d="M276,53.3c0-4.4,2.5-6.6,5.9-6.6c3.1,0,5.9,2.5,5.9,6.6s-2.5,6.6-5.9,6.6C278.5,59.9,276,57.7,276,53.3
		 M285.6,53.3c0-2.8-1.5-5.3-4.1-5.3c-2.5,0-4.1,2.2-4.1,5.3c0,2.8,1.2,5.3,4.1,5.3C284.4,58.7,285.6,56.1,285.6,53.3"/>
	<path class="st0" d="M289.7,57.7l1-1c1,1.2,2.2,1.9,4.1,1.9c2.2,0,3.4-1,3.4-2.2s-1-1.9-3.4-2.5c-3.1-0.7-4.4-1.5-4.4-3.7
		c0-1.9,1.5-3.4,4.4-3.4c2.2,0,3.4,0.7,4.7,1.9l-1,1.2c-1-1-2.2-1.5-3.7-1.5c-1.9,0-2.8,1-2.8,1.9c0,1.2,0.7,1.5,3.1,2.2
		c3.4,0.7,4.9,1.5,4.9,4.1c0,2.2-2.2,3.7-4.9,3.7C292.2,59.9,290.6,59,289.7,57.7"/>
	<path class="st0" d="M140.5,10.4l-16.8,31.2c-0.3,0.7-1.5,0.7-1.9,0L105,10.4c-0.3-0.3-0.7-0.7-1-0.7h-8.1c-0.7,0-1,0.7-0.7,1
		L121.8,59c0.3,0.7,1.2,0.7,1.5,0l26.5-48.3c0.3-0.7,0-1-0.7-1h-8.1C140.8,9.7,140.5,10,140.5,10.4"/>
	<path class="st0" d="M149.8,51.7l16.8-31.2c0.3-0.7,1.5-0.7,1.9,0l16.8,31.2c0.3,0.3,0.7,0.7,1,0.7h8.1c0.7,0,1-0.7,0.7-1
		L168.5,2.9c-0.7-0.7-1.5-0.7-1.9,0l-26.5,48.3c-0.3,0.7,0,1,0.7,1h8.1C149.5,52.4,149.8,52.1,149.8,51.7"/>
	<path class="st0" d="M35.6,32.8c3.4-1.5,5.6-5.3,5.6-10c0-7.8-6.3-13.1-14.9-13.1H1c-0.7,0-1,0.3-1,1v48c0,0.7,0.3,1,1,1h23.9
		c11.9,0,18.3-4.9,18.3-14.9C43.7,34.9,35.6,32.8,35.6,32.8 M9.7,16.9h14.9c5.6,0,8.4,2.2,8.4,6.6S30.3,30,24.7,30H9.7
		c-0.7,0-1-0.3-1-1V17.8C8.8,17.5,9.1,16.9,9.7,16.9 M24.7,52.4H9.7c-0.7,0-1-0.3-1-1V38c0-0.7,0.3-1,1-1h14.9
		c7.1,0,10.3,1.9,10.3,7.5C35.2,50.5,32.2,52.4,24.7,52.4"/>
	<path class="st0" d="M86.9,32.8c3.4-1.5,5.6-5.3,5.6-10c0-7.8-6.3-13.1-14.9-13.1H52.4c-0.7,0-1,0.3-1,1v48c0,0.7,0.3,1,1,1h24.3
		c11.9,0,18.3-4.9,18.3-14.9C95.1,34.9,86.9,32.8,86.9,32.8 M61.1,16.9h15c5.6,0,8.4,2.2,8.4,6.6S81.7,30,76.1,30h-15
		c-0.7,0-1-0.3-1-1V17.8C60.2,17.5,60.5,16.9,61.1,16.9 M76.1,52.4h-15c-0.7,0-1-0.3-1-1V38c0-0.7,0.3-1,1-1h15
		c7.1,0,10.3,1.9,10.3,7.5C86.6,50.5,83.5,52.4,76.1,52.4"/>
</g>
</svg>
