<?xml version="1.0" encoding="utf-8"?>
<!-- Generator: Adobe Illustrator 27.4.0, SVG Export Plug-In . SVG Version: 6.00 Build 0)  -->
<svg version="1.1" id="Capa_1" xmlns="http://www.w3.org/2000/svg" xmlns:xlink="http://www.w3.org/1999/xlink" x="0px" y="0px"
	 viewBox="0 0 200.4 66.5" style="enable-background:new 0 0 200.4 66.5;" xml:space="preserve">
<style type="text/css">
	.st0{fill-rule:evenodd;clip-rule:evenodd;fill:#8C98A4;}
	.st1{fill:#8C98A4;}
	.st2{fill:#B4BBC1;}
</style>
<g>
	<rect x="13.7" y="3.1" class="st0" width="56.6" height="60.3"/>
	<rect x="86.7" y="3.1" class="st0" width="113.7" height="7.4"/>
	<rect x="86.7" y="56" class="st0" width="113.7" height="7.4"/>
	<g>
		<g>
			<path class="st1" d="M90.9,24.9c0,0.2,0,0.7,0.2,0.9c0.2,0.9,1.2,0.9,2.1,0.9c0.7,0,1.6-0.2,1.6-1.2c0-0.7-0.5-0.9-2.8-1.6
				c-2.1-0.5-4.6-1.2-4.6-3.9c0-3,2.6-4.4,5.3-4.4c2.8,0,5.6,1.2,5.6,4.4h-3.9c0-0.5-0.2-0.9-0.5-1.2c-0.2-0.2-0.9-0.2-1.2-0.2
				c-0.5,0-1.4,0.2-1.4,0.9c0,0.9,2.1,1.2,3.9,1.6s3.7,1.4,3.7,3.7c0,3.5-3.2,4.6-6,4.6c-1.4,0-5.8-0.5-5.8-4.9L90.9,24.9L90.9,24.9
				z"/>
			<path class="st1" d="M100.9,16.1h10.9v3.5h-7v1.6h6.3v3.2h-6.3v1.6h7.2v3.5h-11.1V16.1L100.9,16.1z"/>
			<path class="st1" d="M124.8,28.1c-0.9,1.2-2.3,1.6-3.7,1.6c-3.9,0-6.3-3-6.3-7c0-5.1,3.5-7.2,6.5-7.2c3.5,0,5.6,1.9,6,4.9h-3.9
				c-0.2-0.9-0.9-1.6-1.9-1.6c-2.8,0-2.8,3-2.8,3.9c0,1.2,0.5,3.5,3,3.5c0.9,0,1.9-0.5,2.1-1.4H122v-2.8h5.6v7.4H125L124.8,28.1z"/>
			<path class="st1" d="M142.4,24.4c0,3.7-2.1,5.6-6,5.6c-3.9,0-6-1.6-6-5.6v-8.4h4.2v7.2c0,1.4,0,3,2.1,3c1.9,0,1.9-1.6,1.9-3v-7.2
				h4.2v8.4H142.4z"/>
			<path class="st1" d="M145.4,16.1h7.9c2.3,0,4.4,1.4,4.4,3.7c0,1.4-0.7,2.8-2.1,3.2c1.2,0.5,1.9,1.6,2.1,3.2c0,0.7,0,2.3,0.5,2.8
				H154c-0.2-0.7-0.2-1.4-0.2-2.1c0-1.2-0.2-2.6-1.9-2.6h-2.1v4.6h-4.2L145.4,16.1L145.4,16.1z M149.4,22.1h2.1
				c0.7,0,1.9-0.2,1.9-1.4c0.2-0.9-0.5-1.4-1.9-1.4h-1.9v2.8H149.4z"/>
			<path class="st1" d="M166.3,15.9c3.9,0,6.7,2.8,6.7,7s-2.8,7-6.7,7s-6.7-2.8-6.7-7C159.8,18.9,162.4,15.9,166.3,15.9z
				 M166.3,26.5c1.2,0,2.6-0.7,2.6-3.7s-1.4-3.7-2.6-3.7c-1.2,0-2.6,0.7-2.6,3.7S165.4,26.5,166.3,26.5z"/>
			<path class="st1" d="M179.1,24.9c0,0.2,0,0.7,0.2,0.9c0.2,0.9,1.2,0.9,2.1,0.9c0.7,0,1.6-0.2,1.6-1.2c0-0.7-0.5-0.9-2.8-1.6
				c-2.1-0.5-4.6-1.2-4.6-3.9c0-3,2.6-4.4,5.3-4.4c2.8,0,5.6,1.2,5.6,4.4h-3.9c0-0.5-0.2-0.9-0.5-1.2c-0.2-0.2-0.9-0.2-1.2-0.2
				c-0.5,0-1.4,0.2-1.4,0.9c0,0.9,2.1,1.2,3.9,1.6c1.9,0.5,3.7,1.4,3.7,3.7c0,3.5-3.2,4.6-6,4.6c-1.4,0-5.8-0.5-5.8-4.9L179.1,24.9
				L179.1,24.9z"/>
		</g>
		<g>
			<path class="st1" d="M86.7,35.6h7.9c2.3,0,4.4,1.4,4.4,3.7c0,1.4-0.7,2.8-2.1,3.2c1.2,0.5,1.9,1.6,2.1,3.2c0,0.7,0,2.3,0.5,2.8
				h-4.2c-0.2-0.7-0.2-1.4-0.2-2.1c0-1.2-0.2-2.6-1.9-2.6h-2.3v4.6h-4.2V35.6L86.7,35.6z M90.9,41.4H93c0.7,0,1.9-0.2,1.9-1.4
				c0-0.9-0.5-1.4-2.1-1.4h-1.9C90.9,38.8,90.9,41.4,90.9,41.4z"/>
			<path class="st1" d="M101.8,35.6h4.2v13.2h-4.2C101.8,49,101.8,35.6,101.8,35.6z"/>
			<path class="st1" d="M116.4,49h-4.6l-3.9-13.5h3.9l2.1,8.1l0,0l2.1-8.1h4.2L116.4,49z"/>
			<path class="st1" d="M125.2,35.6h3.9l4.9,13.2h-4.2l-0.5-1.9h-4.2l-0.5,1.9h-4.2L125.2,35.6z M128.5,44.2l-1.2-3.9l0,0l-1.4,4.2
				h2.6V44.2z"/>
			<path class="st1" d="M136.2,35.6h6.7c4.4,0,6,3.2,6,6.5c0,3.9-2.1,6.7-6.7,6.7h-6V35.6L136.2,35.6z M140.3,45.5h1.6
				c2.6,0,2.8-2.1,2.8-3.2c0-0.9-0.2-3.2-3.2-3.2h-1.4L140.3,45.5L140.3,45.5z"/>
			<path class="st1" d="M155.4,35.6h3.9l4.9,13.2h-4.4l-0.5-1.9h-4.2l-0.5,1.9h-4.2L155.4,35.6z M158.6,44.2l-1.2-3.9l0,0l-1.4,4.2
				h2.6V44.2z"/>
			<path class="st1" d="M173,49h-4.6l-3.7-13.5h4.2l2.1,8.1l0,0l2.1-8.1h4.2L173,49z"/>
			<path class="st1" d="M179.3,35.6h4.2v13.2h-4.2V35.6z"/>
			<path class="st1" d="M190.4,35.6h3.9l4.9,13.2h-4.2l-0.5-1.9h-4.2l-0.5,1.9h-4.2L190.4,35.6z M193.7,44.2l-1.2-3.9l0,0l-1.4,4.2
				h2.6V44.2z"/>
		</g>
	</g>
	<path class="st1" d="M18.1,18.9l14.1-2.6l7.7,15.8c0,0,5.1,9.5,12.3,7.4c2.1-0.7,2.8-3,2.8-3s0.9-2.8-0.2-6.5s-3.2-5.6-1.6-8.6
		c1.4-3,8.1-3,11.6,5.3c3.5,8.3,3.5,15.3,0.9,20.4c-2.8,5.3-7.9,8.6-15.8,7.7C41.8,53.9,35,48.3,33.2,46c-2.1-2.1-4.2-4.9-4.9-6
		C27.4,39,18.1,18.9,18.1,18.9z"/>
	<path class="st1" d="M80.9,36.3l-8.1,3.5l-8.3-15.5c0,0-3-4.6-6-5.6c-3.2-0.7-5.6,0.2-6.3,3.5c-0.5,3.2,0.7,6,1.2,6.7
		c0.5,0.7,2.6,4.4,0.9,7.4s-5.8,3-8.6,1.2c-2.6-1.9-4.6-5.6-5.8-9.3C39,24.7,37.3,17,41.3,11.7s10.2-5.3,14.8-3.9
		c4.4,1.4,8.8,4.6,10.2,5.8c1.4,1.2,4.9,5.6,5.6,6.5C72.8,21.4,80.9,36.3,80.9,36.3z"/>
	<g>
		<path class="st2" d="M49.4,55.1c-8.1-0.9-14.8-6.5-16.7-8.8c-2.1-2.1-4.2-4.9-4.9-6c-0.7-1.2-9.7-21.3-9.7-21.3L0,29.1l8.3,17.4
			c0,0,3.7,5.8,8.3,8.3c4.9,2.6,7.9,3.5,11.1,3.2c2.8-0.2,19.5-2.1,25.3-2.8C52,55.1,50.8,55.1,49.4,55.1z"/>
	</g>
	<g>
		<path class="st2" d="M45.5,37.4c-2.6-1.9-4.6-5.6-5.8-9.3c-0.9-3.5-2.6-11.1,1.4-16.5c0.9-1.4,2.3-2.3,3.5-3.2l0,0l-16,8.1
			l3.7-0.7l7.7,15.8c0,0,3,5.8,7.7,7.4l3.2-0.9C48.9,38.8,46.9,38.4,45.5,37.4z"/>
	</g>
	<g>
		<path class="st2" d="M64.2,24.2c0,0-3-4.6-6-5.6c-3.2-0.7-5.6,0.2-6.3,3.5c-0.5,3.2,0.7,6,1.2,6.7c0.5,0.7,2.6,4.4,0.9,7.4
			c-0.7,1.4-2.1,2.1-3.2,2.3l-3.2,0.9c1.4,0.5,3,0.7,4.6,0.2c2.1-0.7,2.8-3,2.8-3s0.9-2.8-0.2-6.5s-3.2-5.6-1.9-8.6s8.1-3,11.6,5.3
			c2.3,5.3,3,10,2.6,14.1l5.6-1.2L64.2,24.2z"/>
	</g>
</g>
</svg>
