<?xml version="1.0" encoding="utf-8"?>
<!-- Generator: Adobe Illustrator 27.4.0, SVG Export Plug-In . SVG Version: 6.00 Build 0)  -->
<svg version="1.1" id="Capa_1" xmlns="http://www.w3.org/2000/svg" xmlns:xlink="http://www.w3.org/1999/xlink" x="0px" y="0px"
	 viewBox="0 0 228 66.5" style="enable-background:new 0 0 228 66.5;" xml:space="preserve">
<style type="text/css">
	.st0{fill:#8C98A4;}
</style>
<g>
	<path class="st0" d="M154.4,53.4c-4.8,0-10.6-1.4-14-4.8c-3.4-3.4-5-7.8-5-12.6V12h12.3V36c0,2.2,0.6,4.8,2.2,6.2s4.5,1.7,6.7,0.8
		c3.4-1.1,3.9-4.8,3.9-7.6V20.7V12h12.9V36c0,4.5-1.4,9.2-4.8,12.3C165.6,52,159.1,53.4,154.4,53.4"/>
	<path class="st0" d="M194.7,53.4c-6.7,0-13.1-2.2-17.9-6.2l0,0l3.9-5c0.8-1.1,2-1.7,3.4-1.7c1.1,0,2.2,0.3,3.6,0.8
		c2.2,1.1,4.5,2.2,7,2.2h0.3c2.8,0,4.2-0.8,4.5-2.5c0.3-2.2-2.5-3.1-4.8-3.6l-1.1-0.3c-5-1.1-10.6-2.5-13.1-7
		c-2.5-4.5-1.7-10.3,2.2-14c4.2-3.9,9.8-4.8,14-4.8c0.6,0,0.8,0,1.4,0c5.6,0.3,10.6,2,14.5,5l0.3,0.3l-3.4,5c-0.8,1.4-2.2,2-3.6,2
		c-1.1,0-2-0.3-3.1-0.8c-2-0.8-3.9-1.4-6.2-1.4c-0.3,0-0.8,0-1.1,0c-0.8,0-2,0.3-2.5,0.8c-0.3,0.3-0.6,1.1-0.6,1.4s0,0.6,0.6,0.8
		c1.4,1.1,3.6,1.7,5.6,2.2c0.6,0.3,1.1,0.3,2,0.6c5.6,1.7,10.9,3.6,12.3,8.9c1.4,4.8-0.8,10.3-5,13.7
		C203.3,52.8,198.3,53.4,194.7,53.4"/>
	<path class="st0" d="M221.8,12c-2.8,0-5,2.2-5,5.3s2.2,5.3,5,5.3c2.8,0,5.3-2.2,5.3-5.3S224.6,12,221.8,12 M221.8,21.5
		c-2.2,0-4.2-2-4.2-4.5s2-4.5,4.2-4.5c2.5,0,4.5,2,4.5,4.5C226.3,19.8,224.3,21.5,221.8,21.5"/>
	<path class="st0" d="M219.6,14.5h2.5c0.8,0,1.1,0.3,1.7,0.6c0.3,0.3,0.6,0.8,0.6,1.4l0,0c0,0.6,0,0.8-0.3,1.1
		c-0.3,0.3-0.6,0.6-0.8,0.6l1.4,2h-1.4l-1.4-1.7H221v1.7h-1.1v-5.6H219.6z M222.1,17.3c0.3,0,0.6,0,0.6-0.3c0.3-0.3,0.3-0.3,0.3-0.6
		l0,0c0-0.3,0-0.6-0.3-0.6c-0.3,0-0.3,0-0.8,0h-1.1v1.7L222.1,17.3L222.1,17.3z"/>
	<path class="st0" d="M123.9,37.7c2-1.1,3.1-2.2,4.2-3.9c1.7-2.2,2.2-4.8,2.2-7.8l0,0c0-3.9-1.1-7-3.6-9.5c-1.4-1.4-3.1-2.5-5.3-3.1
		c-2.2-0.8-4.8-1.1-7.8-1.1h-19v40.3h12V40.8h3.6c0.6,0,0.8,0,1.4,0l0,0c0,0,3.4,5,5.9,8.7c2,3.1,6.2,3.1,9.2,3.1h7
		C133.7,52.3,126.4,41.6,123.9,37.7 M106.6,30.7v-8.1h6.4c1.7,0,2.8,0.3,3.9,1.1c0.8,0.6,1.4,1.7,1.4,3.1l0,0c0,1.1-0.6,2.2-1.4,2.8
		c-0.8,0.8-2.2,1.1-3.9,1.1H106.6L106.6,30.7z"/>
	<path class="st0" d="M95.1,59.8h2.5c0.3,0,0.8,0,1.1,0.3c0.3,0.3,0.6,0.3,0.8,0.6c0.3,0.3,0.3,0.3,0.3,0.6s0,0.6,0,0.6l0,0
		c0,0.3,0,0.6,0,0.6c0,0.3-0.3,0.3-0.3,0.6c-0.3,0.3-0.3,0.3-0.6,0.3s-0.6,0.3-0.6,0.3l2,2.5h-0.8l-1.7-2.2h-2v2.5h-0.8V59.8
		L95.1,59.8z M97.6,63.2c0.3,0,0.6,0,0.6,0s0.3-0.3,0.6-0.3s0.3-0.3,0.3-0.3s0-0.3,0-0.6l0,0c0-0.3,0-0.6-0.3-0.8
		c-0.3-0.3-0.6-0.3-1.1-0.3h-2v2.5C95.7,63.2,97.6,63.2,97.6,63.2z"/>
	<rect x="101.8" y="59.8" class="st0" width="0.8" height="6.2"/>
	<path class="st0" d="M107.7,66.2c-0.6,0-0.8,0-1.4-0.3s-0.8-0.3-1.1-0.6c-0.3-0.3-0.6-0.6-0.6-1.1c0-0.6-0.3-0.8-0.3-1.1l0,0
		c0-0.6,0-0.8,0.3-1.1s0.3-0.8,0.6-1.1c0.3-0.3,0.6-0.6,1.1-0.8s0.8-0.3,1.4-0.3c0.6,0,0.8,0,1.4,0.3c0.3,0.3,0.8,0.3,1.1,0.6
		c0.3,0.3,0.6,0.6,0.6,1.1c0.3,0.3,0.3,0.8,0.3,1.1l0,0c0,0.6,0,0.8-0.3,1.1c-0.3,0.3-0.3,0.8-0.6,1.1c-0.3,0.3-0.6,0.6-1.1,0.8
		C108.5,66,108,66.2,107.7,66.2 M107.7,65.4c0.3,0,0.6,0,1.1-0.3c0.3,0,0.6-0.3,0.8-0.6c0.3-0.3,0.3-0.6,0.6-0.8
		c0-0.3,0.3-0.6,0.3-1.1l0,0c0-0.3,0-0.6-0.3-1.1c0-0.3-0.3-0.6-0.6-0.8c-0.3-0.3-0.6-0.3-0.8-0.6c-0.3,0-0.6-0.3-1.1-0.3
		c-0.6,0-0.6,0-1.1,0.3c-0.3,0-0.6,0.3-0.8,0.6c-0.3,0.3-0.3,0.6-0.6,0.8c0,0.3-0.3,0.6-0.3,1.1l0,0c0,0.3,0,0.6,0.3,1.1
		c0,0.3,0.3,0.6,0.6,0.8c0.3,0.3,0.6,0.3,0.8,0.6C106.8,65.4,107.4,65.4,107.7,65.4"/>
	<path class="st0" d="M118,66.2c-0.3,0-0.8,0-1.1-0.3c-0.3-0.3-0.6-0.3-0.8-0.6c-0.3-0.3-0.3-0.6-0.6-0.8c0-0.3-0.3-0.8-0.3-1.1
		v-3.6h0.8v3.4c0,0.6,0.3,1.1,0.6,1.7c0.3,0.3,0.8,0.6,1.4,0.6c0.6,0,1.1-0.3,1.4-0.6s0.6-0.8,0.6-1.7v-3.6h0.8v3.4
		c0,0.6,0,0.8-0.3,1.1c0,0.3-0.3,0.6-0.6,0.8c-0.3,0.3-0.6,0.3-0.8,0.6C118.9,66,118.6,66.2,118,66.2"/>
	<path class="st0" d="M122.8,59.8h2.5c0.3,0,0.8,0,1.1,0.3c0.3,0,0.6,0.3,0.8,0.6c0.3,0.3,0.3,0.3,0.3,0.6s0,0.6,0,0.6l0,0
		c0,0.3,0,0.6,0,0.6s-0.3,0.3-0.3,0.6c-0.3,0.3-0.3,0.3-0.6,0.3c-0.3,0-0.6,0.3-0.6,0.3l2,2.5h-0.8l-1.7-2.2h-1.7v2.5h-0.8
		L122.8,59.8L122.8,59.8z M125.3,63.2c0.3,0,0.6,0,0.6,0s0.3-0.3,0.6-0.3c0.3,0,0.3-0.3,0.3-0.3c0-0.3,0-0.3,0-0.6l0,0
		c0-0.3,0-0.6-0.3-0.8s-0.6-0.3-1.1-0.3h-2v2.5C123.3,63.2,125.3,63.2,125.3,63.2z"/>
	<path class="st0" d="M132,66.2c-0.3,0-0.8,0-1.1-0.3s-0.6-0.3-0.8-0.6c-0.3-0.3-0.3-0.6-0.6-0.8c0-0.3-0.3-0.8-0.3-1.1v-3.6h0.8
		v3.4c0,0.6,0.3,1.1,0.6,1.7c0.3,0.3,0.8,0.6,1.4,0.6s1.1-0.3,1.4-0.6c0.3-0.3,0.6-0.8,0.6-1.7v-3.6h0.8v3.4c0,0.6,0,0.8-0.3,1.1
		c0,0.3-0.3,0.6-0.6,0.8c-0.3,0.3-0.6,0.3-0.8,0.6C132.6,66,132.3,66.2,132,66.2"/>
	<path class="st0" d="M139.3,66.2c-0.6,0-0.8,0-1.4-0.3s-0.8-0.3-1.1-0.6s-0.6-0.6-0.6-1.1c0-0.6-0.3-0.8-0.3-1.1l0,0
		c0-0.6,0-0.8,0.3-1.1s0.3-0.8,0.6-1.1c0.3-0.3,0.6-0.6,1.1-0.8c0.3-0.3,0.8-0.3,1.4-0.3c0.3,0,0.6,0,0.8,0c0.3,0,0.3,0,0.6,0.3
		c0.3,0,0.3,0.3,0.6,0.3s0.3,0.3,0.6,0.3l-0.6,0.6l-0.3-0.3c0,0-0.3-0.3-0.6-0.3s-0.3,0-0.6-0.3c-0.3,0-0.3,0-0.6,0s-0.6,0-0.8,0.3
		c-0.3,0-0.6,0.3-0.8,0.6c-0.3,0.3-0.3,0.6-0.6,0.8c0,0.3-0.3,0.6-0.3,1.1l0,0c0,0.3,0,0.8,0.3,1.1c0,0.3,0.3,0.6,0.6,0.8
		c0.3,0.3,0.6,0.3,0.8,0.6c0.3,0,0.6,0.3,1.1,0.3c0.3,0,0.6,0,1.1-0.3c0.3,0,0.6-0.3,0.8-0.6v-1.7h-2v-0.6h2.5v2.2
		c-0.3,0.3-0.6,0.6-1.1,0.6C140.4,66,139.8,66.2,139.3,66.2"/>
	<path class="st0" d="M146.3,66.2c-0.3,0-0.8,0-1.1-0.3c-0.3,0-0.6-0.3-0.8-0.6c-0.3-0.3-0.3-0.6-0.6-0.8c0-0.3-0.3-0.8-0.3-1.1
		v-3.6h0.8v3.4c0,0.6,0.3,1.1,0.6,1.7c0.3,0.3,0.8,0.6,1.4,0.6c0.6,0,1.1-0.3,1.4-0.6c0.3-0.3,0.6-0.8,0.6-1.7v-3.6h0.8v3.4
		c0,0.6,0,0.8-0.3,1.1c0,0.3-0.3,0.6-0.6,0.8c-0.3,0.3-0.6,0.3-0.8,0.6C147.1,66,146.8,66.2,146.3,66.2"/>
	<path class="st0" d="M153.3,59.8h0.6l2.8,6.2h-0.8l-0.8-1.7h-3.1L151,66h-0.8L153.3,59.8z M155,63.7l-1.4-3.1l-1.4,3.1H155z"/>
	<polygon class="st0" points="160.3,63.7 157.7,59.8 158.3,59.8 160.5,62.9 162.5,59.8 163.3,59.8 160.8,63.7 160.8,66 160.3,66 	
		"/>
	<path class="st0" d="M169.5,66c-0.6,0-0.8,0-1.4-0.3c-0.3-0.3-0.8-0.3-1.1-0.8l0.6-0.6c0.3,0.3,0.6,0.6,1.1,0.6
		c0.3,0.3,0.8,0.3,1.1,0.3c0.6,0,0.8,0,1.1-0.3c0.3-0.3,0.3-0.6,0.3-0.8l0,0c0-0.3,0-0.3,0-0.3s0-0.3-0.3-0.3c0,0-0.3-0.3-0.6-0.3
		s-0.6-0.3-0.8-0.3c-0.3,0-0.6-0.3-0.8-0.3s-0.6-0.3-0.6-0.3c-0.3-0.3-0.3-0.3-0.3-0.6c0-0.3,0-0.3,0-0.6l0,0c0-0.3,0-0.6,0.3-0.6
		c0-0.3,0.3-0.3,0.6-0.6s0.3-0.3,0.6-0.3s0.6,0,0.8,0c0.6,0,0.8,0,1.1,0.3s0.6,0.3,1.1,0.6l-1.1,0.6c-0.3-0.3-0.6-0.3-0.8-0.6
		c-0.3,0-0.6-0.3-0.8-0.3c-0.3,0-0.8,0-0.8,0.3c-0.3,0.3-0.3,0.6-0.3,0.8l0,0c0,0.3,0,0.3,0,0.3s0,0.3,0.3,0.3c0,0,0.3,0.3,0.6,0.3
		c0.3,0,0.6,0.3,0.8,0.3c0.6,0.3,1.1,0.3,1.4,0.6c0.3,0.3,0.6,0.6,0.6,1.1l0,0c0,0.3,0,0.6-0.3,0.8c0,0.3-0.3,0.3-0.6,0.6
		s-0.3,0.3-0.6,0.3C170.1,66,169.8,66,169.5,66"/>
	<polygon class="st0" points="173.4,59.8 177.9,59.8 177.9,60.7 174.2,60.7 174.2,62.6 177.6,62.6 177.6,63.2 174.2,63.2 
		174.2,65.4 177.9,65.4 177.9,66 173.4,66 	"/>
	<path class="st0" d="M182.6,66.2c-0.6,0-0.8,0-1.4-0.3s-0.8-0.3-1.1-0.6c-0.3-0.3-0.6-0.6-0.6-1.1c0-0.6-0.3-0.8-0.3-1.1l0,0
		c0-0.6,0-0.8,0.3-1.1c0.3-0.3,0.3-0.8,0.6-1.1c0.3-0.3,0.6-0.6,1.1-0.8c0.3-0.3,0.8-0.3,1.4-0.3c0.3,0,0.6,0,0.8,0
		c0.3,0,0.3,0,0.6,0.3c0.3,0,0.3,0.3,0.6,0.3c0.3,0,0.3,0.3,0.6,0.3l-0.6,0.6l-0.3-0.3c0,0-0.3-0.3-0.6-0.3s-0.3,0-0.6-0.3
		c-0.3,0-0.3,0-0.6,0c-0.3,0-0.6,0-0.8,0.3s-0.6,0.3-0.8,0.6c-0.3,0.3-0.3,0.6-0.6,0.8c0,0.3-0.3,0.6-0.3,1.1l0,0
		c0,0.3,0,0.8,0.3,1.1c0,0.3,0.3,0.6,0.6,0.8c0.3,0.3,0.6,0.3,0.8,0.6c0.3,0,0.6,0.3,1.1,0.3c0.3,0,0.6,0,1.1-0.3
		c0.3,0,0.6-0.3,0.8-0.6v-1.7h-2.2v-0.6h2.5v2.2c-0.3,0.3-0.6,0.6-1.1,0.6C183.8,66,183.2,66.2,182.6,66.2"/>
	<path class="st0" d="M189.6,66.2c-0.3,0-0.8,0-1.1-0.3c-0.3,0-0.6-0.3-0.8-0.6c-0.3-0.3-0.3-0.6-0.6-0.8c0-0.3-0.3-0.8-0.3-1.1
		v-3.6h0.8v3.4c0,0.6,0.3,1.1,0.6,1.7c0.3,0.3,0.8,0.6,1.4,0.6s1.1-0.3,1.4-0.6c0.3-0.3,0.6-0.8,0.6-1.7v-3.6h0.8v3.4
		c0,0.6,0,0.8-0.3,1.1c-0.3,0.3-0.3,0.6-0.6,0.8c-0.3,0.3-0.6,0.3-0.8,0.6C190.2,66,189.9,66.2,189.6,66.2"/>
	<path class="st0" d="M194.1,59.8h2.5c0.3,0,0.8,0,1.1,0.3s0.6,0.3,0.8,0.6c0.3,0.3,0.3,0.3,0.3,0.6s0,0.6,0,0.6l0,0
		c0,0.3,0,0.6,0,0.6s-0.3,0.3-0.3,0.6c-0.3,0.3-0.3,0.3-0.6,0.3s-0.6,0.3-0.6,0.3l2,2.5h-0.8l-2-2.2h-1.7V66h-0.8V59.8L194.1,59.8z
		 M196.6,63.2c0.3,0,0.6,0,0.6,0c0.3,0,0.3-0.3,0.6-0.3c0.3,0,0.3-0.3,0.3-0.3c0-0.3,0-0.3,0-0.6l0,0c0-0.3,0-0.6-0.3-0.8
		c-0.3-0.3-0.6-0.3-1.1-0.3h-2v2.5C194.9,63.2,196.6,63.2,196.6,63.2z"/>
	<path class="st0" d="M203.9,66.2c-0.6,0-0.8,0-1.4-0.3s-0.8-0.3-1.1-0.6c-0.3-0.3-0.6-0.6-0.6-1.1c-0.3-0.3-0.3-0.8-0.3-1.1l0,0
		c0-0.6,0-0.8,0.3-1.1c0.3-0.3,0.3-0.8,0.6-1.1c0.3-0.3,0.6-0.6,1.1-0.8c0.3-0.3,0.8-0.3,1.4-0.3c0.6,0,0.8,0,1.4,0.3
		c0.3,0.3,0.8,0.3,1.1,0.6c0.3,0.3,0.6,0.6,0.6,1.1c0.3,0.3,0.3,0.8,0.3,1.1l0,0c0,0.6,0,0.8-0.3,1.1c-0.3,0.3-0.3,0.8-0.6,1.1
		c-0.3,0.3-0.6,0.6-1.1,0.8C204.7,66,204.2,66.2,203.9,66.2 M203.9,65.4c0.3,0,0.6,0,1.1-0.3c0.3,0,0.6-0.3,0.8-0.6
		c0.3-0.3,0.3-0.6,0.6-0.8c0-0.3,0.3-0.6,0.3-1.1l0,0c0-0.3,0-0.6-0.3-1.1c0-0.3-0.3-0.6-0.6-0.8c-0.3-0.3-0.6-0.3-0.8-0.6
		c-0.3,0-0.6-0.3-1.1-0.3c-0.3,0-0.6,0-1.1,0.3c-0.3,0-0.6,0.3-0.8,0.6c-0.3,0.3-0.3,0.6-0.6,0.8c0,0.3-0.3,0.6-0.3,1.1l0,0
		c0,0.3,0,0.6,0.3,1.1c0,0.3,0.3,0.6,0.6,0.8c0.3,0.3,0.6,0.3,0.8,0.6S203.3,65.4,203.9,65.4"/>
	<path class="st0" d="M210.9,66c-0.6,0-0.8,0-1.4-0.3c-0.3-0.3-0.8-0.3-1.1-0.8l0.6-0.6c0.3,0.3,0.6,0.6,1.1,0.6
		c0.3,0.3,0.8,0.3,1.1,0.3c0.6,0,0.8,0,1.1-0.3c0.3-0.3,0.3-0.6,0.3-0.8l0,0c0-0.3,0-0.3,0-0.3s0-0.3-0.3-0.3c0,0-0.3-0.3-0.6-0.3
		s-0.6-0.3-0.8-0.3c-0.3,0-0.6-0.3-0.8-0.3c-0.3,0-0.6-0.3-0.6-0.3c-0.3-0.3-0.3-0.3-0.3-0.6c0-0.3,0-0.3,0-0.6l0,0
		c0-0.3,0-0.6,0.3-0.6c0-0.3,0.3-0.3,0.6-0.6c0.3-0.3,0.3-0.3,0.6-0.3s0.6,0,0.8,0c0.6,0,0.8,0,1.1,0.3c0.3,0,0.6,0.3,1.1,0.6
		l-1.1,0.6c-0.3-0.3-0.6-0.3-0.8-0.6c-0.3,0-0.6-0.3-0.8-0.3c-0.3,0-0.8,0-0.8,0.3c-0.3,0.3-0.3,0.6-0.3,0.8l0,0c0,0.3,0,0.3,0,0.3
		s0,0.3,0.3,0.3c0,0,0.3,0.3,0.6,0.3c0.3,0,0.6,0.3,0.8,0.3c0.6,0.3,1.1,0.3,1.4,0.6s0.6,0.6,0.6,1.1l0,0c0,0.3,0,0.6-0.3,0.8
		c0,0.3-0.3,0.3-0.6,0.6c-0.3,0.3-0.3,0.3-0.6,0.3C211.4,66,211.2,66,210.9,66"/>
	<path class="st0" d="M67.7,11.2c-2.5,1.7-3.9,3.6-4.5,5.3c-0.6-1.1-1.4-2.2-2.5-2.8c-3.9-2.8-11.2-5-15.9-8.4c0,0,0.3,5.9,4.5,8.9
		c3.9,2.8,8.1,3.4,10.1,4.8c2,1.4,2.5,2.8,2.8,3.6l0,0c0.3-1.4,3.1-5,6.4-6.4c4.5-2,7.3-1.7,12.6-4.8c6.4-3.6,8.1-11.2,8.1-11.2
		C82,6.1,73.6,7.2,67.7,11.2"/>
	<path class="st0" d="M84.2,20.4C62.7,36.6,43.4,21.5,28,22.9c-7.3,0.8-11.5,2.8-14.3,7.8s-3.4,5.6-3.4,5.6c3.6-2,8.9-3.1,14-3.4
		c12.6-0.6,24.6,6.2,36.4,6.2l0,0c-12,1.4-23.5-5-39.7-2.5c-6.4,0.8-13.1,4.5-15.9,9.2l-4.2,7.6c11.5-6.2,23.2-6.4,36.9-1.7
		c18.2,6.4,26,4.2,29.6-2C69.9,45.3,78,31.3,78,31.3l0,0L84.2,20.4z"/>
</g>
</svg>
