<?xml version="1.0" encoding="utf-8"?>
<!-- Generator: Adobe Illustrator 27.4.0, SVG Export Plug-In . SVG Version: 6.00 Build 0)  -->
<svg version="1.1" id="Capa_1" xmlns="http://www.w3.org/2000/svg" xmlns:xlink="http://www.w3.org/1999/xlink" x="0px" y="0px"
	 viewBox="0 0 321.1 65" style="enable-background:new 0 0 321.1 65;" xml:space="preserve">
<style type="text/css">
	.st0{fill-rule:evenodd;clip-rule:evenodd;fill:#8C98A4;}
</style>
<g id="Logos">
	<g id="logos" transform="translate(-103.000000, -92.000000)">
		<g id="logo_sc_seguros" transform="translate(103.000000, 92.000000)">
			<path id="Fill-1" class="st0" d="M67.4,61.6c-1,0-1.5,0-2.2-0.2c-0.7-0.2-1.2-0.7-1.9-1.2l-0.2-0.2c0-0.5,0-0.5,0-0.7
				s0-0.5,0.2-0.7c0.2-0.2,0.2-0.2,0.7-0.2c0.2,0,0.2,0,0.5,0.2c0.5,0.5,1,0.7,1.5,1s1,0.2,1.7,0.2c0.5,0,1,0,1.2-0.2s0.7-0.2,1-0.7
				c0.2-0.2,0.2-0.7,0.2-1c0-0.5,0-0.7-0.2-1s-0.7-0.5-1-0.7c-0.5-0.2-1-0.2-1.5-0.5c-0.7,0-1.2-0.2-1.5-0.5c-0.5-0.2-1-0.5-1.2-0.7
				c-0.2-0.2-0.7-0.7-0.7-1c-0.2-0.5-0.2-1-0.2-1.5c0-0.7,0.2-1.5,0.5-1.9c0.2-0.5,1-1,1.5-1.2c0.7-0.2,1.2-0.5,2.2-0.5
				c0.7,0,1.5,0,1.9,0.2c0.7,0.2,1.2,0.5,1.5,1c0.2,0.2,0.5,0.5,0.5,0.7c0,0.2,0,0.5-0.2,0.7c-0.2,0.2-0.2,0.2-0.7,0.2
				c-0.2,0-0.2,0-0.5-0.2c-0.2-0.2-0.5-0.2-0.7-0.5c-0.2-0.2-0.7-0.2-1-0.5s-0.7-0.2-1-0.2c-0.5,0-1,0-1.2,0.2s-1,0.7-1.2,1
				c-0.2,0.2-0.2,0.5-0.2,1c0,0.5,0,0.7,0.2,1c0.2,0.2,0.5,0.5,1,0.7c0.5,0.2,1,0.2,1.5,0.5c0.7,0.2,1.2,0.2,1.7,0.5s1,0.5,1.2,0.7
				c0.2,0.2,0.7,0.7,0.7,1c0.2,0.5,0.2,1,0.2,1.5c0,0.7-0.2,1.5-0.7,1.9c-0.5,0.5-1,1-1.5,1.2C68.9,61.3,68.2,61.6,67.4,61.6"/>
			<path id="Fill-3" class="st0" d="M78.4,61.6c-1,0-1.9-0.2-2.4-0.7c-0.7-0.5-1.2-1-1.7-1.7c-0.5-0.7-0.7-1.5-0.7-2.4
				s0.2-1.9,0.7-2.7c0.5-0.7,1-1.2,1.7-1.7c0.7-0.2,1.5-0.7,2.2-0.7s1.2,0,1.7,0.2c0.5,0.2,1,0.5,1.5,1c0.5,0.5,0.7,1,1,1.5
				c0.2,0.5,0.2,1.2,0.2,1.7c0,0.2,0,0.5-0.2,0.7C82,57,82,57,81.6,57h-6.8L74,55.7h6.6L80.3,56v-0.2c0-0.5-0.2-0.7-0.5-1
				s-0.5-0.5-1-0.7c-0.2-0.2-0.7-0.2-1.2-0.2c-0.2,0-0.7,0-1,0.2c-0.2,0-0.7,0.2-1,0.5s-0.5,0.7-0.7,1c0.2,0.2,0.2,0.7,0.2,1.2
				c0,0.7,0.2,1.2,0.5,1.7s0.7,1,1.2,1.2c0.5,0.2,1,0.5,1.5,0.5c0.5,0,0.7,0,1-0.2c0.2,0,0.5-0.2,0.7-0.2c0.2,0,0.2-0.2,0.5-0.2
				s0.2-0.2,0.5-0.2s0.2,0,0.5,0.2s0.2,0.2,0.2,0.5c0,0.2,0,0.5-0.2,0.7c-0.2,0.2-0.7,0.7-1.2,0.7C79.6,61.3,78.9,61.6,78.4,61.6"/>
			<path id="Fill-5" class="st0" d="M88.4,53.6c-0.5,0-1,0.2-1.5,0.5c-0.5,0.2-0.7,0.7-1,1.2c-0.2,0.5-0.2,1-0.2,1.7
				c0,0.7,0,1.2,0.2,1.7c0.2,0.5,0.5,1,1,1.2s1,0.5,1.5,0.5c0.5,0,1-0.2,1.5-0.5c0.5-0.2,0.7-0.7,1-1.2c0.2-0.5,0.2-1,0.2-1.7
				c0-0.7,0-1.2-0.2-1.7c-0.2-0.5-0.5-1-1-1.2C89.6,53.6,88.9,53.6,88.4,53.6 M88.1,51.9c0.5,0,1,0,1.2,0.2c0.5,0.2,0.7,0.2,1,0.7
				c0.2,0.5,0.5,0.5,0.7,0.7c0.2,0.2,0.2,0.5,0.2,0.7H91v-1.5c0-0.2,0-0.5,0.2-0.7c0.2-0.2,0.2-0.2,0.7-0.2s0.5,0,0.7,0.2
				c0.2,0.2,0.2,0.2,0.2,0.7v7.8c0,1-0.2,1.9-0.7,2.4c-0.5,0.7-1,1.2-1.5,1.5c-0.7,0.2-1.5,0.5-2.2,0.5c-0.2,0-0.7,0-1,0
				s-0.7-0.2-1-0.2c-0.2,0-0.5-0.2-0.7-0.2c-0.2-0.2-0.5-0.2-0.5-0.5s0-0.2,0-0.7s0.2-0.5,0.5-0.5c0.2,0,0.5,0,0.7,0
				c0,0,0.2,0,0.5,0.2c0.2,0,0.5,0.2,0.7,0.2c0.2,0,0.5,0,0.7,0c1,0,1.5-0.2,1.9-0.7s0.7-1,0.7-1.9v-1.5h0.2c0,0.2-0.2,0.5-0.2,0.7
				c-0.2,0.2-0.5,0.5-0.7,0.7c-0.2,0.2-0.7,0.2-1,0.5c-0.2,0.2-0.7,0.2-1.2,0.2c-0.7,0-1.5-0.2-2.2-0.7c-0.7-0.5-1.2-1-1.5-1.7
				c-0.2-0.7-0.5-1.5-0.5-2.4s0.2-1.7,0.5-2.4s1-1.2,1.5-1.7C86.7,52.1,87.4,51.9,88.1,51.9"/>
			<path id="Fill-7" class="st0" d="M102.5,51.9c0.2,0,0.5,0,0.7,0.2c0.2,0.2,0.2,0.5,0.2,0.7v4.6c0,1.2-0.2,2.2-1,2.9
				c-0.7,0.7-1.7,1-2.9,1c-1.2,0-2.2-0.2-2.9-1c-0.7-0.7-1-1.7-1-2.9v-4.9c0-0.2,0-0.5,0.2-0.7c0.2-0.2,0.2-0.2,0.7-0.2
				c0.2,0,0.5,0,0.7,0.2c0.2,0.2,0.2,0.5,0.2,0.7v4.6c0,0.7,0.2,1.5,0.5,1.7c0.2,0.2,1,0.7,1.5,0.7c0.5,0,1.2-0.2,1.7-0.7
				c0.2-0.2,0.5-1,0.5-1.7v-4.6c0-0.2,0-0.5,0.2-0.7C102,51.9,102.2,51.9,102.5,51.9"/>
			<path id="Fill-9" class="st0" d="M106.9,61.6c-0.2,0-0.5,0-0.7-0.2s-0.2-0.2-0.2-0.7v-7.5c0-0.2,0-0.5,0.2-0.7
				c0.2-0.2,0.5-0.2,0.7-0.2c0.2,0,0.5,0,0.7,0.2s0.2,0.2,0.2,0.7V55l-0.2-0.7c0-0.2,0.2-0.7,0.5-1c0.2-0.2,0.5-0.5,0.7-0.7
				c0.2-0.2,0.7-0.2,1-0.5c0.2,0,0.7-0.2,1.2-0.2c0.2,0,0.7,0,1,0.2c0.2,0.2,0.2,0.2,0.2,0.7c0,0.2,0,0.5-0.2,0.7
				c-0.2,0.2-0.2,0.2-0.7,0.2c-0.2,0-0.2,0-0.5,0s-0.2,0-0.7,0s-0.5,0-0.7,0.2c-0.2,0-0.5,0.2-0.7,0.7c-0.2,0.2-0.5,0.5-0.5,1
				c0,0.2-0.2,0.7-0.2,1.2v3.7c0,0.2,0,0.5-0.2,0.7C107.4,61.3,107.1,61.6,106.9,61.6"/>
			<path id="Fill-11" class="st0" d="M120.7,56.7c0-0.7-0.2-1.2-0.5-1.7s-0.7-1-1-1.2c-0.2-0.2-1-0.5-1.5-0.5c-0.5,0-1,0.2-1.5,0.5
				c-0.5,0.2-0.7,0.7-1,1.2c-0.2,0.5-0.5,1-0.5,1.7c0,0.7,0.2,1.2,0.5,1.7s0.7,1,1,1.2c0.5,0.2,1,0.5,1.5,0.5c0.5,0,1-0.2,1.5-0.5
				c0.5-0.2,0.7-0.7,1-1.2C120.7,57.9,120.7,57.2,120.7,56.7 M122.7,56.7c0,1-0.2,1.7-0.7,2.4s-1,1.2-1.7,1.7
				c-0.7,0.5-1.5,0.7-2.4,0.7c-1,0-1.7-0.2-2.4-0.7c-0.7-0.5-1.2-1-1.7-1.7c-0.5-0.7-0.7-1.5-0.7-2.4s0.2-1.7,0.7-2.4s1-1.2,1.7-1.7
				c0.7-0.5,1.5-0.7,2.4-0.7c1,0,1.7,0.2,2.4,0.7c0.7,0.5,1.2,1,1.7,1.7S122.7,55.7,122.7,56.7"/>
			<path id="Fill-13" class="st0" d="M123.7,59.9c0-0.2-0.2-0.2-0.2-0.7c0-0.2,0-0.5,0.2-0.5c0.2,0,0.2-0.2,0.5,0
				c0.2,0,0.2,0,0.5,0.2c0.2,0.2,0.7,0.7,1,1c0.2,0.2,1,0.2,1.5,0.2c0.2,0,0.5,0,0.7,0c0.2,0,0.5-0.2,0.7-0.2
				c0.2-0.2,0.2-0.5,0.2-0.7c0-0.2,0-0.5-0.2-0.7c-0.2-0.2-0.5-0.2-0.7-0.5c-0.2,0-0.7-0.2-1-0.2s-0.7-0.2-1.2-0.2
				c-0.2,0-0.7-0.2-1-0.5s-0.5-0.5-0.7-0.7c-0.2-0.2-0.2-0.7-0.2-1.2s0.2-1,0.5-1.5c0.2-0.5,0.7-0.7,1.2-1c0.5-0.2,1-0.2,1.5-0.2
				c0.2,0,0.7,0,1,0.2s0.7,0.2,1,0.5s0.7,0.5,1,0.7c0,0.2,0.2,0.2,0.2,0.5s0,0.5-0.2,0.5s-0.2,0.2-0.5,0.2c-0.2,0-0.2,0-0.5-0.2
				c-0.2-0.2-0.5-0.5-1-0.7c0-0.7-0.2-0.7-0.7-0.7c-0.2,0-0.5,0-0.7,0c-0.2,0-0.5,0.2-0.7,0.2c-0.2,0.2-0.2,0.5-0.2,0.7
				s0,0.5,0.2,0.7c0.2,0.2,0.5,0.2,0.7,0.5c0.2,0,0.7,0.2,1,0.2c0.2,0,0.7,0.2,1,0.2c0.2,0.2,0.7,0.2,1,0.5c0.2,0.2,0.5,0.5,0.7,0.7
				c0.2,0.2,0.2,0.7,0.2,1.2c0,0.7-0.2,1-0.5,1.5c-0.2,0.5-0.7,0.7-1.2,1c-0.5,0.2-1,0.2-1.5,0.2c-0.7,0-1.2,0-1.9-0.2
				C124.6,60.9,124.2,60.4,123.7,59.9"/>
			<path id="Fill-15" class="st0" d="M237.1,23.1l2.2-4.4h-7.8v-6.3h-4.6v20.4c0,3.9,2.2,7.3,7.3,7.3c1.7,0,3.4-1,4.4-1.5v-4.6
				c-1.2,1-2.9,1.9-4.1,1.9c-2.2,0-2.9-1.5-2.9-3.2v-9.7C231.5,23.1,237.1,23.1,237.1,23.1z M213.3,27c-1.5-0.2-3.9-0.7-3.9-2.2
				c0-1.5,1.5-2.4,3.7-2.4c2.7,0,4.4,1.7,4.6,2.9h4.4c-0.2-2.4-2.4-6.8-9-6.8c-5.4,0-8.3,3.2-8.3,6.6c0,3.7,2.7,5.4,8.3,6.3
				c2.4,0.5,4.6,1,4.6,2.4c0,1.2-1.2,2.7-4.1,2.7s-5.1-1.5-5.4-3.4h-4.4c0,2.9,2.4,7.3,9.5,7.3c3.9,0,8.8-1.7,8.8-6.8
				C222.3,29.5,219.1,28.2,213.3,27L213.3,27z M195.2,39.9h4.6V18.7h-4.6V39.9z M182.1,20.7l-4.6-1.9v21.2h4.6V29.7
				c0-4.4,2.2-7.3,6.1-7.3c1.2,0,2.9,0.2,2.9,0.2l0.2-4.1c-1-0.2-1.9-0.2-2.7-0.2C185.7,18.3,183.6,19.7,182.1,20.7L182.1,20.7z
				 M316.5,39.9h4.6V9.7h-4.6V39.9z M279,36.3c-2.4,0-6.6-1.9-6.6-6.8c0-3.2,2.7-6.8,6.6-6.8c3.7,0,6.6,2.7,6.6,6.8
				C285.6,32.9,283.1,36.3,279,36.3L279,36.3z M279.5,18.3c-3.7,0-6.6,1.9-7.3,2.4v-11h-4.6v30.2l4.6-1.9c0.7,0.7,3.2,2.4,7.3,2.4
				c5.4,0,10.7-4.1,10.7-11C290.2,25.1,287,18.3,279.5,18.3L279.5,18.3z M301.6,36.5c-2.7,0-3.9-1.7-3.9-2.9c0-2.4,2.2-2.9,4.4-2.9
				h6.1C308,33.1,306.3,36.5,301.6,36.5L301.6,36.5z M303.3,18.3c-5.1,0-8.5,2.9-9.3,7.5h4.4c0-1.9,2.4-3.4,4.9-3.4
				c2.9,0,4.4,1.9,4.4,4.4h-6.1c-6.1,0-8.8,3.2-8.8,6.8c0,3.2,2.4,6.8,8,6.8c3.4,0,5.8-1.7,6.8-2.4l4.4,1.9V26.3
				C312.3,23.1,310.6,18.3,303.3,18.3L303.3,18.3z M252.5,36.3c-3.9,0-6.8-3.2-6.8-6.8s3.2-6.8,6.8-6.8c3.7,0,6.8,3.2,6.8,6.8
				S256.1,36.3,252.5,36.3L252.5,36.3z M252.5,18.3c-6.3,0-11.4,4.9-11.4,11s5.1,11,11.4,11s11.4-4.9,11.4-11
				C263.7,23.4,258.5,18.3,252.5,18.3L252.5,18.3z M195.2,15.6h4.6v-3.9h-4.6V15.6z M73.5,23.1c-2.2-0.5-5.1-0.7-5.4-3.2h-4.9
				c0.7,4.6,2.4,6.3,10.5,7.8c3.9,0.7,6.6,1,6.6,4.1s-3.2,4.4-5.8,4.4c-3.4,0-7.3-1.9-7.3-5.1h-4.9c0,4.6,4.4,9.5,11.7,9.5
				c8.5,0,10.7-5.6,10.7-8.8C84.7,25.8,80.3,24.6,73.5,23.1L73.5,23.1z M96.2,36.5c-2.9,0-3.9-1.7-3.9-2.9c0-2.4,2.2-2.9,4.4-2.9
				h6.1C102.7,33.1,100.8,36.5,96.2,36.5L96.2,36.5z M98.1,18.3c-5.1,0-8.5,2.9-9.3,7.5h4.4c0-1.9,2.4-3.4,4.9-3.4
				c2.9,0,4.4,1.9,4.4,4.4h-6.1c-6.1,0-8.8,3.2-8.8,6.8c0,3.2,2.4,6.8,8,6.8c3.4,0,5.8-1.7,6.8-2.4l4.4,1.9V26.3
				C107.1,23.1,105.4,18.3,98.1,18.3L98.1,18.3z M123.9,18.3c-3.2,0-5.6,1.2-6.8,2.4l-4.6-1.9v21.2h4.6V29.7c0-3.2,1.5-7.3,6.1-7.3
				c4.1,0,4.9,3.9,4.9,5.4v11.9h4.6V27.3C132.7,24.1,131,18.3,123.9,18.3L123.9,18.3z M159.5,36c-2.9,0-10-2.4-10-10.2
				c0-1.5,0.7-4.1,1.7-5.8h-5.4c-0.7,1.2-1.2,3.9-1.2,5.8c0,4.9,3.7,14.6,14.9,14.6c8.3,0,12.9-6.1,13.9-10.5h-4.6
				C168.2,32.1,165.3,36,159.5,36L159.5,36z M259,10h-6.1l-3.4,6.1h4.9L259,10z"/>
			<path id="Fill-17" class="st0" d="M64.8,17.3L64.8,17.3c0,0.2,0,0.2,0,0.2c0.5,1.2,1.5,1.9,1.9,2.4c0,0,0.2,0,0.2,0.2
				c-0.2-2.9,2.2-4.4,5.4-4.4c4.6,0,6.6,3.2,6.6,4.6c1,0,3.7,0,4.6,0c0-3.7-2.4-9-10.7-9c-3.7,0-6.1,1.2-7.3,2.7l0,0
				c-0.5,0.7-0.7,1.5-0.7,2.2c0,0,0,0,0,0.2l0,0C64.8,16.8,64.8,16.8,64.8,17.3"/>
			<path id="Fill-19" class="st0" d="M159.7,11.4c-7.1,0-12.2,4.6-8.5,9c1.7-2.2,4.4-4.6,8.5-4.6c5.1,0,8.5,3.2,9.3,6.1h4.6
				C173.1,18.7,169.2,11.4,159.7,11.4"/>
			<g id="Group-23">
				<path id="Fill-21" class="st0" d="M32.6,32.4c-0.2,0-0.2,0-0.5,0c-1,0.2-1.7,0-2.2-0.7c-1-1.2-2.4-1.5-2.4-1.5
					c0.7-1,1.2-1.9,1.7-2.4c0.2-0.7,0.2-1.2-0.2-1.7l-1-0.7c0.5-0.5,1.2-1.5,2.4-1.9c0,0.2,0,0.5,0,0.7s0.2,0.2,0.5,0.2
					c1.2-1.2,2.9-1,2.9-1c-0.2,2.2,1.5,3.9,1.5,3.9s1.2,1,1,2.4C35.3,31.2,34.3,32.1,32.6,32.4 M30.7,44.6c-1-1.2-3.4-2.7-4.6-3.4
					l0,0c-0.2,0-0.5-0.2-0.7-0.2c-0.5-1.5-0.5-3.4-0.5-4.6c0,0,0,0,0.2,0l0.2,0.2c1,0.7,1.9,1,3.2,1c0.7,0,1.5-0.2,2.2-0.5
					c-0.2,1-0.5,2.9,0.2,4.4c0.5,0,0.7-0.2,0.7-0.2S31.4,43.6,30.7,44.6 M25.8,30.7c0-1,0-2.2,0-2.7c0-0.5,0.2-1,0.7-1
					c0.2,0,0.5,0,0.7,0C28,27.5,27.3,29.2,25.8,30.7 M26.5,32.4c-1-0.2-1.2,0-1,0.2c0.2,0.2,0,0.2,0,0.2c-0.2,0-0.2-0.2,0-1
					c0.2-0.5,1-0.7,1.7-0.7c1,0.2,1.9,1,2.4,1.9c0.2,1.2-0.2,1.2-1.2,1c-0.7-0.2-0.7-0.5-0.7-0.7c0,0,0.2,0,0.2-0.2
					C28,33.4,27.5,32.6,26.5,32.4 M23.6,31.4L23.6,31.4c0,0,0,0.2-0.2,0.7l0,0c-0.2,1-0.2,3.2,0,7.1c0.2,1.9-0.2,5.8-1.2,8.3
					c-1.7-0.2-3.4-0.7-5.1-1.2c1-2.2,2.9-6.6,3.2-9.5c0.2-2.4-0.5-3.7-0.5-3.7c0-1.9-1-2.4-1-2.4c0.2-1-0.2-1.5-1.2-1
					c-1,0.7-1.9,2.7-1.9,2.7s-0.5,0-1,0c-0.2-3.4,1.5-6.8,4.9-7.5c1.7-0.7,3.9-1,5.4-2.2c1-0.7,1.5-1.5,1.9-2.4c0.2,0.5,0.5,1,1,1.5
					c-2.2,1.5-3.7,4.1-3.7,7.1c0,0.5,0,1,0.2,1.5C24.1,30.4,23.9,30.9,23.6,31.4 M13.1,44.1c0.2-1.2,0.2-3.7,0-4.4
					c-0.2-1-1-3.2,0-4.9c1-1.5,1.9-1.5,1.9-1.5c-0.5,1-1,1.9-1.5,2.9c0,0,0,0.2,0.2,0c1-1.5,2.9-4.6,3.9-5.8H18
					c-0.2,1.2-1.2,3.7-1.7,4.9c0,0,0,0.2,0.2,0c0.7-1,1.5-2.9,2.2-4.1c0.7,0.7-0.2,3.2-1,5.1c0,0,0,0.2,0.2,0
					c0.7-0.5,1.2-2.4,1.2-2.4c0,0.5,0,0.7,0.2,1.2c0,0.2,0,1-0.7,2.2c0,0,0,0.2,0.2,0c0.2,0.2,0.2-0.2,0.5-0.2
					c-0.2,2.2-1.9,6.1-3.4,8.8C14.9,45,13.9,44.6,13.1,44.1 M8.3,23.6c-0.2-0.2-1.2-0.5-2.2-1c-0.2-0.2-0.7-0.2-1.2-0.2
					c-0.2,0-0.2-0.2,0-0.5c0.2-0.2,0.2-0.7,0-1c-0.2-0.5-1-0.5-1.2-0.7c-0.2,0-0.2-0.2,0.5,0c0.2,0,0.7,0,1,0.2
					c0.5,0.2,0.7,0.5,1,0.7l0,0l0,0l0,0l0,0c1.7,1.2,3.9,1.7,6.1,1.2c3.2-1,6.1-2.4,9.3-2.7c0.2,0.7,0.2,1.7,0,2.7
					c-1,0.2-2.4,0.7-3.9,1.2c-1,0.5-1.9,0.7-2.2,0.7C12.9,25.1,10.5,24.6,8.3,23.6 M19.5,15.8c0.2,0,0.5-0.2,0.7-0.2v-0.2l-0.7-0.2
					v-0.2c0.2-0.2,0-0.5-0.2-0.5c0-0.2,0-0.2,0-0.2l0,0c0.2-0.2,0.7-0.5,1-1v-0.2c0,0,0.2,0,0.2,0.2c0.7,0,0.7-0.5,0.7-0.5h0.5
					c0-0.7-0.7-1-1.2-1c-0.2,0-0.2,0.2-0.5,0.2c0-0.2,0-0.7,0.2-1c0.2-0.5,0.2-1,0.7-1.2l0,0c0.2,0.7,1,0.7,1.7,0.7
					c-0.7,1-1.2,2.4,0.5,2.9c0.2,0,0.5,0,0.7-0.2c1.9-2.7,2.9,1.5,0,1.2c-0.2,0-0.2,0-0.2,0.2l0,0l0,0l0,0c0.7,1.5,1.7,2.2,2.7,2.4
					l0,0c-0.2,1.5-1,3.2-2.4,4.1c-0.2,0.2-0.7,0.5-1.2,0.7c0-0.7,0-1.5,0-2.2l0,0v-0.2l0,0c0,0,0-0.2-0.2-0.2c0-0.2-0.2-0.7-0.5-1
					c0.2-0.2,0.5-0.2,0.7-0.7c0,0,0-0.2-0.2-0.2c-1,0.2-1.7,0-1.7,0C20,17.3,19.5,16.6,19.5,15.8 M47,20.9c-0.2-0.2-0.7-0.2-1-0.2
					s-0.5,0.2-0.7,0.5L38,38.5c-0.2,0-0.5,0-0.7-0.2c-1,0.2-1.7,1-2.2,1.7v0.2c-0.2,0-0.5,0-0.7,0c-1-1-1.5-2.2-1.5-2.9
					c0.7,0.7,1.5,1,2.2,1c0.2,0,0.2-0.2,0.2-0.2c0-0.2-0.2-0.5-0.2-0.7c0.7,0.5,1.9,0.2,2.4,0.2c0.2,0,0.2-0.2,0.2-0.2
					c-0.2-0.2-0.2-0.2-0.2-0.7c0-0.7,1-1.5,1-1.5l0,0l0.2-0.2c0.5-0.5,1.5-1.7,1.7-3.4c0.2-2.2-0.2-3.2-0.2-3.2s0.7,0,1-0.5
					c0.2-0.7,0-1.7,0-2.2c-1.2-3.4-4.4-5.6-8.3-5.6c-1.5,0-2.7,0.2-3.9,1c-0.7-0.7-1.2-1.9-1.5-2.9l0,0c0.2,0,0.7,0,1.2-0.2v-0.2
					c-0.2,0-0.2-0.2-0.5-0.2c1.5,0,2.7-1.2,2.4-2.9c0-0.5,0-1-0.2-1.2c0.5-2.4-0.2-6.1-4.1-7.3c-2.7-1-5.1,0-6.1,1.2
					c-0.7,0.7-1,2.2-0.5,3.2c-0.2,0.5-0.2,1.2-0.2,1.9c0,0.7-0.5,0.7-1,1.2c-0.2,0.2,0,1,0.2,1.2c-0.5,1.5,0,3.4,1.9,3.9
					c0,0,0,0,0,0.2c-2.4,0.2-4.6,1-6.8,1.9c-1.2,0.5-2.4,1-3.7,0.7c-1.2,0-2.2-0.5-3.2-1c-0.2,0-0.2,0-0.7-0.2
					c-0.2-0.2-0.7-0.7-1.5-0.7c-1-0.2-2.4,0-2.9,0s-0.7,0.7,0.2,1h0.2c-0.2,0.2-0.2,0.5-0.2,0.5c-0.2,0.2,0,0.7,0.7,0.5
					c0.2,0,0.5-0.2,1-0.5c0.2,0,0.2,0,0.2,0.2c0.2,0,0.2,0.5-0.5,0.5c-1,0-1.2,0.5-1,0.7c0,0.5,0.5,0.2,1.2,0.2s0.7,0.2,1.7,0.2
					c0.2,0,0.7,0.2,0.7,0.2l0,0c0.7,0.5,1.2,1,1.7,1.2c2.2,1.2,4.6,1.7,7.1,1.2c0,0,0,0,0,0.2l-0.2,1l0,0c-0.7,1.7-1.2,3.7-0.7,5.4
					c-0.5,0.2-1,0.7-1.5,1.2c-1.5,2.2,0,4.4,0,6.3c0,0.2-0.2,2.2-0.2,2.9c-5.4-3.9-8.8-10.2-9-17.3c0-0.2,0-0.2-0.2-0.5l-2.4-1
					l-0.5-0.2c0,0-0.2,0-0.2,0.2s0,0.7,0,0.7l0,0c0,14.6,12.2,26.3,26.8,25.3c1.7,0,3.2-0.5,4.9-0.7c0.5-0.2,1-0.2,1.5-0.5
					c1.2-0.5,2.4-1,3.7-1.5l0,0l0,0l0,0l0,0l0,0c0,0,0.2,0,0.2-0.2c0,0,0,0,0-0.2c0.2-0.2,0.5-0.2,0.7-0.7c0.2-0.2-0.7-1-1-1.2l0,0
					l-1.2-0.5c-0.5-0.2-0.7-0.2-0.7-0.7c0-0.2,0-0.2,0.2-0.2c0.7,0,1.5,0.2,2.2,0.2l0,0c-0.7-0.5-1.2-0.7-1.9-0.7c0-0.2,0-0.5,0-0.7
					c0,0,0-0.2,0.2-0.2c0.2-0.2,0.7-0.2,1.2-0.2c0.2,0,0.2,0,0.5,0.2c0.2,0.2,0.7,0.2,1,0.5c-0.2-0.5-1-1-1.2-1.2c-0.2,0-0.7,0-1,0
					h-0.2v-0.2l0,0c0-0.2,0.2-0.2,0.2-0.2c0.5-0.2,1-0.5,1.2-0.5c0.5,0.2,1,0.7,1.5,1l0,0c-0.7-1.2-1.5-1.7-2.7-1.2h-0.2l0,0
					c0-0.2,0.2-0.5,0.5-0.7c0.2-0.5,1-0.7,1.2-0.7l0,0c0.5,0.2,0.7,0.5,1.2,0.7c0.2,0.2,0.5,0.7,0.7,1l0.2-0.2l0.2-0.2l0,0l7.5-18
					c0-0.2,0-0.7-0.2-1C47.2,21.2,47.2,20.9,47,20.9 M31.4,27.5c-1.2-0.2-1.5,0.7-0.2,1.5c1.2,1,1.2,0,1.2,0s1,1,1.2,0.2
					C33.8,29,32.6,27.8,31.4,27.5 M48,14.6C43.8,6.1,35.1,0,25.1,0C15.1,0,6.6,5.8,2.4,14.4c0,0.2,0,0.5,0.2,0.7l2.4,1
					c0.2,0,0.5,0,0.5-0.2c3.7-7.3,11-12.2,19.5-12.2c9.5,0,17.5,6.1,20.7,14.6c0.2,0.2,0.7,0.5,0.7,0l1.5-3.2
					C48,14.9,48,14.6,48,14.6"/>
			</g>
		</g>
	</g>
</g>
</svg>
