<?xml version="1.0" encoding="utf-8"?>
<!-- Generator: Adobe Illustrator 27.4.0, SVG Export Plug-In . SVG Version: 6.00 Build 0)  -->
<svg version="1.1" id="Capa_1" xmlns="http://www.w3.org/2000/svg" xmlns:xlink="http://www.w3.org/1999/xlink" x="0px" y="0px"
	 viewBox="0 0 319 64.9" style="enable-background:new 0 0 319 64.9;" xml:space="preserve">
<style type="text/css">
	.st0{fill:#869AB8;}
	.st1{fill:#8C98A4;}
	.st2{fill:#797777;}
	.st3{fill:#B4BBC1;}
	.st4{fill:#EEEEEE;}
	.st5{fill:#FFFFFF;}
	.st6{fill:none;stroke:#8C98A4;stroke-width:0.2495;stroke-miterlimit:10;}
	.st7{fill:#707070;}
	.st8{fill:#FFFFFF;stroke:#8C98A4;stroke-width:0.2495;stroke-miterlimit:10;}
	.st9{fill:none;stroke:#FFFFFF;stroke-width:1.3721;stroke-miterlimit:10;}
	.st10{fill:none;stroke:#8C98A4;stroke-width:0.4989;stroke-miterlimit:10;}
	.st11{fill:#B4BBC1;stroke:#8C98A4;stroke-width:0.2495;stroke-miterlimit:10;}
	.st12{fill:#DADADA;}
	.st13{fill:#787575;}
	.st14{opacity:0.9;}
</style>
<g>
	<path class="st0" d="M304.2,12.3c1.9,0,3.5,0,5.3,0c0,6.3,0,12.5,0,18.8c3,0,6,0,9,0c0.2,1.4,0.5,2.8,0.5,4.2c-4.9,0-9.7,0-14.8,0
		C304.2,27.6,304.2,19.9,304.2,12.3z"/>
	<g>
		<path class="st1" d="M83.2,14.1C85.5,12,89,11.6,92,12c2.1,0.2,4.2,0.9,5.6,2.5c1.2,1.2,1.4,2.8,1.6,4.4c-1.6,0-3.2,0-5.1,0
			c0-3.7-5.3-4.2-7.2-1.9c-0.7,1.2,0,2.5,1.2,3c3.2,1.4,7.2,1.2,10,3.9c2.8,3.2,1.2,9-2.8,10.7c-3.2,1.2-7.2,1.2-10.4,0
			c-2.5-1.2-4.4-3.9-3.9-6.9c1.6,0,3.2,0,4.6,0c-0.2,3.9,5.3,5.1,7.9,2.8c1.2-0.9,0.9-3-0.7-3.5c-2.8-1.4-6-1.4-8.6-3
			C80.6,22.2,80.2,16.7,83.2,14.1z"/>
		<path class="st1" d="M128.1,12.5c3.9-1.2,9-0.7,11.6,2.8c1.2,1.4,1.4,3.5,1.9,5.3c-1.6,0-3.2,0-4.9,0c-0.5-1.4-0.7-3.2-2.3-3.9
			c-2.1-1.2-4.9-0.7-6,1.4c-1.4,2.1-0.9,4.6-0.9,7.2c0,1.4,0.2,3,1.2,4.4c1.6,2.5,6,2.5,7.4,0c0.7-0.9,0.7-1.9,0.7-3
			c-1.6,0-3.2,0-5.1,0c0-1.2,0-2.3,0-3.7c3.2,0,6.7,0,10,0c0,4.2,0,8.3,0,12.3c-1.2,0-2.1,0-3.2,0c-0.2-0.9-0.5-1.9-0.5-2.5
			c-3.5,4.4-11.6,3.9-14.1-1.2c-1.9-3.5-1.9-7.6-1.4-11.4C122.8,16.7,124.9,13.4,128.1,12.5z"/>
		<g>
			<path class="st1" d="M196.9,12.3c3.7-0.9,8.3-0.5,10.9,2.5c2.1,2.5,2.5,6,2.5,9s-0.5,6.3-2.5,8.6c-2.5,3-7.2,3.5-10.9,2.5
				c-2.8-0.7-5.6-2.8-6.5-5.6c-1.2-3.5-1.2-7.2-0.2-10.7C191.1,15.8,193.7,13,196.9,12.3z M198.3,16.4c-2.3,0.7-3.2,3.2-3.2,5.3
				c0,2.5-0.5,5.1,0.7,7.2c1.4,2.5,5.6,3,7.6,0.9c1.4-1.4,1.6-3.7,1.6-5.3c0-2.1,0.2-4.4-0.7-6.3C203.4,16.4,200.6,15.5,198.3,16.4z
				"/>
		</g>
		<path class="st1" d="M103.3,12.3c5.3,0,10.7,0,15.8,0c-0.2,1.4-0.5,2.8-0.5,4.2c-3.5,0-6.9,0-10.2,0c0,1.9,0,3.5,0,5.1
			c3.2,0,6.5,0,9.7,0c0,1.4,0,2.8,0,4.2c-3.2,0-6.5,0-9.7,0c0,1.9,0,3.5,0,5.3c3.5,0,6.9,0,10.2,0c0.2,1.4,0.5,2.8,0.5,4.2
			c-5.3,0-10.7,0-15.8,0C103.3,27.6,103.3,19.9,103.3,12.3z"/>
		<path class="st1" d="M145.9,12.3c1.6,0,3.5,0,5.1,0c0,5.3,0,10.7,0,16c0.5,3.9,7.4,3.9,7.9,0c0-5.3,0-10.7,0-16c1.6,0,3.5,0,5.1,0
			c0,5.3,0,10.4,0,15.8c0,2.1-0.9,4.4-2.8,5.8c-2.5,1.9-6,2.1-9,1.4c-3.5-0.5-6.5-3.7-6.5-7.2C145.9,22.7,145.9,17.6,145.9,12.3z"/>
		<g>
			<path class="st1" d="M168.9,12.3c3.7,0,7.4,0,11.1,0c2.3,0,4.6,0.9,6,3c1.6,3,0,7.2-3.2,8.3c1.2,0.7,2.5,1.6,3,3
				c1.2,2.3-0.2,5.6,2.1,7.2c0,0.2,0.2,0.7,0.2,1.2c-1.9,0.5-4.4,0.9-6-0.7c-1.6-2.1,0-5.3-2.1-7.4c-1.6-1.4-3.9-0.7-5.8-0.9
				c0,3,0,6,0,9.3c-1.6,0-3.5,0-5.1,0C168.9,27.6,168.9,19.9,168.9,12.3z M174,16.4c0,1.9,0,3.7,0,5.6c1.9,0,3.7,0,5.6,0
				c2.5-0.5,2.8-4.6,0.2-5.3C177.9,16.4,176.1,16.7,174,16.4z"/>
		</g>
		<path class="st1" d="M214.8,12.3c2.5,0,5.3,0,7.9,0c1.9,5.3,3.5,10.9,5.1,16.4c2.1-5.3,3.5-10.9,5.3-16.4c2.5,0,5.3,0,7.9,0
			c0,7.6,0,15.1,0,22.7c-1.6,0-3.5,0-5.1,0c0-5.6,0-11.1,0-16.7c-2.1,5.6-3.5,11.1-5.3,16.9c-1.9,0-3.7,0-5.6,0
			c-1.9-5.6-3.2-11.4-5.3-16.7c0,5.6,0,11.1,0,16.7c-1.6,0-3.2,0-4.6,0C214.8,27.6,214.8,19.9,214.8,12.3z"/>
		<path class="st1" d="M246.3,12.3c5.3,0,10.7,0,15.8,0c-0.2,1.4-0.5,2.8-0.5,4.2c-3.5,0-6.9,0-10.2,0c0,1.9,0,3.5,0,5.1
			c3.2,0,6.5,0,9.7,0c0,1.4,0,2.8,0,4.2c-3.2,0-6.5,0-9.7,0c0,1.9,0,3.5,0,5.3c3.5,0,6.9,0,10.2,0c0.2,1.4,0.5,2.8,0.5,4.2
			c-5.3,0-10.7,0-15.8,0C246.3,27.6,246.3,19.9,246.3,12.3z"/>
		<path class="st1" d="M264.1,12.3c5.8,0,11.6,0,17.4,0c0,1.4,0,2.8,0,4.2c-2.1,0-3.9,0-6,0c0,6.3,0,12.5,0,18.5c-1.9,0-3.5,0-5.1,0
			c0-6.3,0-12.5,0-18.8c-2.1,0-3.9,0-6,0C264.1,15.1,264.1,13.7,264.1,12.3z"/>
		<g>
			<path class="st1" d="M287.5,12.3c2.1,0,4.2,0,6.3,0c2.5,7.6,5.3,15.1,7.9,22.7c-1.9,0-3.7,0-5.3,0c-0.5-1.4-0.9-2.8-1.4-4.4
				c-3,0-6,0-9.3,0c-0.5,1.4-0.9,2.8-1.4,4.4c-1.6,0-3.2,0-4.9,0C282.2,27.6,284.9,19.9,287.5,12.3z M290.3,17.1
				c-1.2,3.2-2.1,6.3-3,9.3c2.1,0,4.2,0,6.3,0C292.4,23.4,291.7,20.2,290.3,17.1z"/>
		</g>
		<path class="st1" d="M81.3,43.3c0.9-2.8,5.1-3.5,7.2-1.6c0.9,0.7,1.2,2.1,1.4,3.2c-0.7,0-1.6,0-2.3,0c0-1.2-0.9-2.8-2.3-2.3
			c-2.1,0.2-2.1,3-1.9,4.6c-0.2,2.1,3.2,3,3.9,1.2c0-0.2,0.2-0.9,0.5-1.2c0.7,0,1.6,0,2.3,0c-0.5,1.2-0.5,2.5-1.6,3.2
			c-2.1,1.6-5.8,1.2-6.9-1.6C80.6,47,80.6,45.2,81.3,43.3z"/>
		<g>
			<path class="st1" d="M93.6,41c2.1-0.7,5.1,0,6,2.3c0.7,2.1,0.7,4.4-0.5,6.3c-2.1,2.5-6.9,2.1-7.9-1.2
				C90.3,45.9,90.6,41.9,93.6,41z M94.1,43.1c-1.4,1.2-1.2,3.2-0.9,4.6c0.5,1.9,3.7,2.1,4.4,0.5c0.2-1.4,0.2-2.5,0-3.9
				C97.1,42.6,95.4,42.2,94.1,43.1z"/>
		</g>
		<g>
			<path class="st1" d="M104.2,41c2.1-0.7,4.6-0.2,5.8,1.9c0.9,1.9,0.9,4.2,0,6c-1.6,3.2-7.4,3-8.3-0.7
				C100.8,45.9,101.2,41.9,104.2,41z M104.7,43.1c-1.4,0.9-0.9,2.8-0.9,4.2c0,2.3,3.7,3,4.4,0.9c0.2-1.4,0.2-2.5,0-3.9
				C107.7,42.6,105.9,42.2,104.7,43.1z"/>
		</g>
		<g>
			<path class="st1" d="M112.4,40.8c1.9,0,3.7-0.2,5.6,0.2c2.5,0.5,3.2,4.4,1.2,5.8c-1.4,0.9-3,0.7-4.6,0.7c0,1.2,0,2.3,0,3.5
				c-0.7,0-1.4,0-2.1,0C112.4,47.7,112.4,44.2,112.4,40.8z M114.4,42.9c0,0.9,0,1.9,0,3c0.5,0,1.6,0,2.1,0c1.2,0.2,1.9-1.4,1.2-2.3
				C117,42.4,115.6,43.1,114.4,42.9z"/>
		</g>
		<path class="st1" d="M121.6,40.8c2.3,0,4.6,0,6.9,0c0,0.7,0,1.4,0,1.9c-1.6,0-3.2,0-4.6,0c0,0.7,0,1.4,0,2.1c1.4,0,3,0,4.4,0
			c0,0.5,0,1.4,0,1.9c-1.4,0-3,0-4.4,0c0,0.7,0,1.6,0,2.3c1.6,0,3,0,4.6,0c0,0.7,0.2,1.4,0.2,1.9c-2.3,0-4.6,0-6.9,0
			C121.6,47.7,121.6,44.2,121.6,40.8z"/>
		<g>
			<path class="st1" d="M130.7,40.8c2.1,0.2,4.4-0.5,6.5,0.5c2.1,0.7,1.9,3.9,0,4.6c1.6,1.4,1.2,3.5,2.1,5.3
				c-0.9,0.2-1.9,0.2-2.5-0.2c-0.7-1.2-0.2-2.5-1.2-3.7c-0.7-0.5-1.9-0.2-2.5-0.5c0,1.4,0,2.8,0,4.2c-0.7,0-1.4,0-2.1,0
				C130.7,47.7,130.7,44.2,130.7,40.8z M132.7,42.9c0,0.7,0,1.6,0,2.3c0.9,0,1.9,0,2.5,0c0.9-0.5,1.2-1.4,0.5-2.1
				C134.8,42.6,133.9,42.9,132.7,42.9z"/>
		</g>
		<path class="st1" d="M196.9,40.8c2.3,0,4.6,0,6.9,0c0,0.7,0,1.4-0.2,1.9c-1.6,0-3.2,0-4.6,0c0,0.7,0,1.4,0,2.1c1.4,0,2.8,0,4.4,0
			c0,0.5,0,1.4,0,1.9c-1.4,0-3,0-4.4,0c0,0.7,0,1.6,0,2.3c1.6,0,3,0,4.6,0c0,0.7,0.2,1.4,0.2,1.9c-2.3,0-4.6,0-7.2,0
			C196.9,47.7,196.9,44.2,196.9,40.8z"/>
		<path class="st1" d="M210.4,41.5c2.3-1.4,6.5-0.9,6.9,2.3c-0.7,0-1.6,0-2.3,0.2c0-0.5-0.2-0.9-0.5-1.2c-1.2-0.5-3.7-0.7-3,1.2
			c1.9,1.2,5.6,0.7,5.8,3.7c0,4.6-8.6,4.6-8.3,0c0.7,0,1.4,0,2.1,0c-0.2,2.3,3.9,2.8,3.9,0.2c-1.4-0.9-3-0.9-4.4-1.9
			C208.5,45.4,208.5,42.4,210.4,41.5z"/>
		<path class="st1" d="M218.9,40.8c2.3,0,4.6,0,6.9,0c0,0.7,0,1.4,0,1.9c-1.6,0-3.2,0-4.6,0c0,0.7,0,1.4,0,2.1c1.4,0,3,0,4.4,0
			c0,0.5,0,1.4,0,1.9c-1.4,0-3,0-4.4,0c0,0.7,0,1.6,0,2.3c1.6,0,3,0,4.6,0c0,0.7,0.2,1.4,0.2,1.9c-2.3,0-4.6,0-7.2,0
			C218.9,47.7,218.9,44.2,218.9,40.8z"/>
		<path class="st1" d="M227.5,43.8c0.7-3,4.6-3.7,6.9-2.1c1.2,0.7,1.2,2.1,1.6,3c-0.7,0-1.4,0-2.1,0c-0.2-1.4-1.4-2.3-2.8-1.9
			c-1.9,0.7-1.4,2.8-1.4,4.4c0,1.6,1.6,2.5,3,2.1c0.9-0.2,0.9-1.4,1.4-2.1c-0.7,0-1.6,0-2.3,0c0-0.5,0-1.2,0-1.4c1.4,0,3,0,4.4,0
			c0,1.9,0,3.7,0,5.6c-0.9,0.2-1.4-0.2-1.6-1.2c-1.4,1.4-3.7,1.6-5.3,0.5C226.8,48.9,227,45.9,227.5,43.8z"/>
		<g>
			<path class="st1" d="M248.1,40.8c2.1,0.2,4.4-0.5,6.5,0.5c2.1,0.7,1.9,4.2-0.5,4.6c2.1,1.2,1.2,3.7,2.3,5.1
				c-0.9,0.2-2.1,0.5-2.8-0.5c-0.5-1.2-0.2-2.3-0.9-3.5c-0.7-0.5-1.9-0.2-2.5-0.5c0,1.4,0,2.8,0,4.2c-0.7,0-1.4,0-2.1,0
				C248.1,47.7,248.1,44.2,248.1,40.8z M250.4,42.9c0,0.7,0,1.6,0,2.3c1.2,0,3.2,0.5,3.7-1.2C253.4,42.4,251.6,43.1,250.4,42.9z"/>
		</g>
		<g>
			<path class="st1" d="M260.4,41c2.1-0.7,5.1,0,6,2.3c0.7,2.1,0.7,4.4-0.5,6.3c-2.1,2.5-6.9,2.1-7.9-1.2
				C257.1,45.9,257.4,41.9,260.4,41z M260.9,43.1c-1.4,0.9-1.2,2.8-0.9,4.2c0,2.3,3.7,3,4.4,0.9c0.2-1.4,0.2-2.5,0-3.9
				C263.9,42.6,262,42.4,260.9,43.1z"/>
		</g>
		<path class="st1" d="M269.4,41.7c2.3-1.4,6.5-0.9,6.9,2.3c-0.7,0-1.6,0-2.3,0c0-0.2-0.2-0.9-0.2-1.2c-1.2-0.5-3.7-0.7-3,1.2
			c1.9,1.2,5.8,0.7,5.8,3.9c0,4.6-8.6,4.6-8.3-0.2c0.7,0,1.4,0,2.1,0c-0.2,2.3,3.9,2.8,3.9,0.2c-1.4-0.9-3-0.9-4.4-1.9
			C267.8,45.4,267.6,42.4,269.4,41.7z"/>
		<g>
			<path class="st1" d="M142.7,41c0.9,0,1.9,0,2.8,0c1.2,3.5,2.3,6.7,3.7,10.2c-0.7,0-1.6,0-2.3,0c-0.2-0.7-0.5-1.4-0.7-1.9
				c-1.4,0-2.8,0-3.9,0c-0.2,0.7-0.5,1.4-0.7,1.9c-0.7,0-1.4,0-2.1,0C140.4,47.7,141.8,44.5,142.7,41z M144.1,43.3
				c-0.5,1.4-0.9,2.5-1.4,3.9c0.9,0,1.9,0,2.8,0C145,45.9,144.8,44.5,144.1,43.3z"/>
		</g>
		<path class="st1" d="M148.3,40.8c2.5,0,5.3,0,7.9,0c0,0.5,0,1.4,0,1.9c-0.9,0-1.9,0-2.8,0c0,2.8,0,5.6,0,8.3c-0.7,0-1.6,0-2.3,0
			c0-2.8,0-5.6,0-8.3c-0.9,0-1.9,0-2.8,0C148.3,42.4,148.3,41.5,148.3,40.8z"/>
		<path class="st1" d="M157.3,41c1.6,0,3.2,0,5.1,0c0,1.2,0,2.3-1.4,2.1c0,2.1,0,4.2,0,6.3c0.5,0,1.2,0,1.4,0c0,0.5,0,1.4,0,1.9
			c-1.6,0-3.2,0-4.9,0c0-0.7,0-1.4,0-1.9c0.5,0,1.2,0,1.4,0c0-2.1,0-4.2,0-6.5c-0.5,0-1.2,0-1.4,0C157.3,42.4,157.3,41.5,157.3,41z"
			/>
		<path class="st1" d="M163.1,40.8c0.7,0,1.9,0,2.3,0c0.7,2.5,1.4,4.9,2.3,7.4c0.7-2.5,1.4-4.9,2.3-7.4c0.5,0,1.6,0,2.3,0
			c-1.2,3.5-2.3,6.9-3.2,10.2c-0.9,0-1.6,0-2.5,0C165.4,47.7,164.2,44.2,163.1,40.8z"/>
		<g>
			<path class="st1" d="M174.9,41c0.9,0,1.9,0,2.8,0c1.2,3.5,2.3,6.7,3.7,10.2c-0.7,0-1.6,0-2.3,0c-0.2-0.7-0.5-1.4-0.7-1.9
				c-1.4,0-2.8,0-3.9,0c-0.2,0.7-0.5,1.4-0.7,1.9c-0.7,0-1.4,0-2.1,0C172.4,47.7,173.7,44.5,174.9,41z M176.1,43.3
				c-0.5,1.4-0.9,2.5-1.4,3.9c0.9,0,1.9,0,2.8,0C177.2,45.9,176.8,44.5,176.1,43.3z"/>
		</g>
		<g>
			<path class="st1" d="M186.3,41c2.8,0,6.5-0.7,7.9,2.1c0.9,2.3,0.9,5.6-1.2,7.2c-2.1,1.4-4.6,0.7-6.9,0.7
				C186.3,47.7,186.3,44.2,186.3,41z M188.6,42.9c0,2.1,0,4.4,0,6.5c1.2,0,2.5,0.2,3.2-0.7c0.7-1.4,0.7-3.2,0.2-4.6
				C191.6,42.4,189.7,42.9,188.6,42.9z"/>
		</g>
		<path class="st1" d="M237.9,41c0.7,0,1.6,0,2.3,0c0,2.5,0,5.1,0,7.4c0.7,1.2,2.8,1.4,3.5,0c0.2-2.5,0-5.1,0-7.6c0.5,0,1.6,0,2.1,0
			c0,2.5,0,5.1,0,7.4c-0.5,3.9-7.6,3.9-8.1,0C237.9,45.9,238.1,43.3,237.9,41z"/>
		<path class="st1" d="M281.7,41c0.7,0,1.6,0,2.3,0c0,2.8,0,5.6,0,8.3c1.4,0,2.8,0,3.9,0c0,0.7,0.2,1.2,0.2,1.9c-2.1,0-4.4,0-6.7,0
			C281.7,47.7,281.7,44.2,281.7,41z"/>
		<path class="st1" d="M288.2,40.8c2.5,0,5.3,0,7.9,0c0,0.5,0,1.4,0,1.9c-0.9,0-1.9,0-2.8,0c0,2.8,0,5.6,0,8.3c-0.7,0-1.6,0-2.3,0
			c0-2.8,0-5.6,0-8.3c-0.9,0-1.9,0-2.8,0C288.2,42.4,288.2,41.5,288.2,40.8z"/>
		<g>
			<path class="st1" d="M297.2,41c2.8,0,6.5-0.7,7.9,2.1c0.9,2.3,0.9,5.3-1.2,7.2c-2.1,1.4-4.6,0.7-6.9,0.9
				C297.2,47.7,297.2,44.2,297.2,41z M299.5,42.9c0,2.1,0,4.4,0,6.5c1.2,0,3.2,0.2,3.7-1.4c0.5-1.4,0.5-3-0.2-4.4
				C302.1,42.4,300.7,43.1,299.5,42.9z"/>
		</g>
	</g>
	<g>
		<path class="st0" d="M309.5,41c0.9,0,1.9,0,2.8,0c1.2,3.5,2.3,6.9,3.7,10.2c-0.7,0-1.6,0-2.3,0c-0.2-0.7-0.5-1.4-0.7-1.9
			c-1.4,0-2.8,0-3.9,0c-0.2,0.7-0.5,1.4-0.7,1.9c-0.7,0-1.4,0-2.1,0C307.2,47.7,308.3,44.5,309.5,41z M310.9,43.3
			c-0.5,1.4-0.9,2.5-1.4,3.9c0.9,0,1.9,0,2.8,0C311.8,45.9,311.4,44.5,310.9,43.3z"/>
	</g>
	<path class="st0" d="M316.9,51.2c0-0.7,0-1.4,0-2.1c0.5,0,1.6,0,2.1,0c0,0.7,0,1.4,0,2.1C318.5,51.2,317.4,51.2,316.9,51.2z"/>
	<path class="st2" d="M47,19.9c0.2,0,0.2,0,0.5,0h0.2c0.2,0,0.5,0,0.2-0.2c-0.2,0-0.5,0-0.7,0C47.5,19.9,47.3,19.9,47,19.9z"/>
	<path class="st3" d="M63.5,41.5c0.5-2.3,0.9-4.6,1.2-6.9c-1.4-0.7-2.5-1.4-3.9-2.1c0-0.7,0-1.2,0-1.9c1.4-0.7,2.5-1.4,3.9-2.1
		c-0.5-2.3-0.9-4.4-1.4-6.7c-1.4-0.2-3-0.5-4.4-0.5c-0.5-0.5-0.7-0.9-0.9-1.4c0.9-1.2,1.9-2.1,2.8-3.2c-1.4-1.9-2.5-3.7-3.9-5.8
		c-1.4,0.5-2.8,0.9-4.4,1.4c-0.5-0.5-0.9-0.7-1.4-1.2c0.5-1.4,0.9-2.8,1.4-3.9c-1.9-1.2-3.9-2.5-5.8-3.7c-1.2,0.9-2.3,1.9-3.5,2.8
		c-0.5-0.2-1.2-0.5-1.6-0.7c0-1.4-0.2-2.8-0.2-4.4c-2.3-0.5-4.6-0.7-6.9-1.2c-0.5,1.2-1.2,2.5-1.9,3.7c-0.5,0-1.2,0-1.6,0
		c-0.7-1.2-1.4-2.3-2.1-3.7c-2.3,0.5-4.4,0.9-6.7,1.4c-0.2,1.4-0.5,3-0.5,4.4c-0.5,0.2-1.2,0.5-1.6,0.7c-1.2-0.9-2.1-1.9-3.2-2.8
		c-1.9,1.4-3.9,2.8-5.6,3.9c0.2,1.6,0.7,3,1.2,4.4c-0.5,0.5-0.9,0.7-1.2,1.2c-1.4-0.5-2.8-0.7-4.2-1.2c-0.9,1.6-2.1,3-3,4.6l0,0
		c-0.2,0.5-0.5,0.7-0.7,1.2C4.2,19,5.1,20.2,6,21.3c-0.2,0.5-0.5,1.2-0.7,1.6c-1.4,0-2.8,0.2-4.2,0.5C0.7,25.7,0.5,28,0,30.3
		c1.2,0.5,2.3,1.2,3.5,1.9c0,0,0.2,0,0.2,0.2c0,0.5,0,1.2,0,1.6c-1.2,0.7-2.5,1.4-3.7,2.1c0.5,2.1,0.9,4.4,1.4,6.7
		c1.6,0,3.2,0.2,4.6,0.2c0,0.5,0.5,0.9,0.5,1.4c-0.9,1.2-1.9,2.3-2.5,3.5c1.4,1.9,2.5,3.7,3.9,5.8c1.4-0.5,2.5-0.9,3.9-1.4
		c0.5,0.5,0.7,0.7,1.2,1.2c-0.5,1.4-0.7,2.8-1.2,4.2c0.5,0.2,0.7,0.5,1.2,0.7c1.2,0.7,2.1,1.4,3.2,2.1c0.5,0.5,0.9,0.7,1.4,0.9
		c1.2-0.9,2.1-1.9,3.2-2.8c0.5,0.2,1.2,0.5,1.6,0.7c0.2,1.4,0.5,2.8,0.5,4.4c2.3,0.5,4.6,0.7,6.9,1.2c0.7-1.4,1.4-2.5,1.9-3.9
		c0.7,0,1.2,0,1.9,0c0.7,1.2,1.4,2.5,2.1,3.7c2.3-0.5,4.6-0.9,6.7-1.4c0-1.4,0.2-2.8,0.5-4.4c0.5-0.2,1.2-0.5,1.6-0.7
		c1.2,0.9,2.3,1.9,3.5,2.8c1.9-1.4,3.7-2.5,5.8-3.9c-0.5-1.4-0.9-2.8-1.4-4.2c0.5-0.5,0.7-0.7,1.2-1.2c1.4,0.5,2.8,0.7,4.2,1.2
		c1.2-1.9,2.5-3.9,3.7-5.8c-0.9-1.2-1.9-2.3-2.8-3.2c0.2-0.5,0.5-1.2,0.7-1.6C60.7,41.7,62.1,41.5,63.5,41.5z M58.6,44.9L58.6,44.9
		c0.5,0.7,1.2,1.4,1.6,2.1c-0.5,0.7-0.9,1.4-1.4,2.1s-0.9,1.4-1.2,1.9c-0.2,0.2-0.2,0.5-0.5,0.7c-1.4-0.5-2.5-0.7-3.9-1.2
		c-0.7,0.7-1.2,1.4-1.9,1.9c0.5,1.4,0.9,2.8,1.2,4.2l0,0c-0.5,0.2-0.7,0.5-1.2,0.9c-1.2,0.7-2.3,1.6-3.5,2.3
		c-1.2-0.9-2.1-1.9-3.2-2.5c-0.7,0.5-1.6,0.7-2.5,1.2c-0.2,1.4-0.2,2.8-0.5,4.2c-0.7,0-1.2,0.2-1.9,0.5c-1.2,0.2-2.5,0.5-3.7,0.7
		c-0.7-1.2-1.4-2.3-2.1-3.7c0,0,0,0,0-0.2c-0.9,0-1.9,0-2.8,0c-0.2,0.5-0.5,0.9-0.7,1.4l0,0c-0.5,0.7-0.7,1.6-1.2,2.3
		c-1.9-0.5-3.7-0.7-5.6-0.9c0-0.5,0-0.9-0.2-1.4l0,0c0-0.5-0.2-0.9-0.2-1.4l0,0c0-0.5,0-0.9-0.2-1.4c-0.2,0-0.2,0-0.5-0.2
		c-0.7-0.2-1.4-0.5-2.1-0.7c-0.5,0.2-0.7,0.7-1.2,0.9l0,0c-0.7,0.7-1.4,1.2-2.1,1.9c-0.9-0.7-2.1-1.4-3-1.9l0,0
		c-0.5-0.5-1.2-0.7-1.6-1.2c0-0.5,0.2-1.2,0.5-1.6c0.5-0.5,0.7-1.2,0.7-1.9c0-0.2,0-0.5,0.2-0.5c-0.7-0.7-1.4-1.2-2.1-1.9
		c0,0-0.2,0-0.5,0c-0.7,0.2-1.4,0.5-2.1,0.7c-0.2,0.2-0.9,0.2-1.4,0.5C6.9,51,6,49.6,4.9,48c0.5-0.7,0.9-1.4,1.4-1.9
		c0.5-0.5,0.7-0.9,1.2-1.4c-0.5-0.7-0.7-1.6-1.2-2.3c-0.5,0-0.9,0-1.4-0.2c-0.7,0-1.4,0-1.9-0.2c-0.2,0-0.7,0-0.9,0
		c-0.2-0.7-0.5-1.4-0.5-2.1c-0.2-1.2-0.5-2.1-0.7-3.2c0.7-0.5,1.4-0.7,2.1-1.2l0,0c0.5-0.2,1.2-0.5,1.6-0.7c0-0.2,0-0.5,0-0.7
		c0-0.7,0-1.4,0-2.1c-0.2-0.2-0.7-0.5-0.9-0.7c-0.5-0.2-0.9-0.5-1.4-0.7l0,0c-0.5-0.2-0.9-0.5-1.2-0.7v-0.2c0.2-0.9,0.2-1.9,0.5-2.5
		c0.2-0.9,0.2-1.9,0.5-2.8c0.9,0,1.9-0.2,2.5-0.2c0.5,0,0.9,0,1.4-0.2c0.2-0.9,0.7-1.6,0.9-2.3l0,0c0-0.2,0-0.2,0-0.5
		C6,19.9,5.1,19,4.2,17.8c1.2-1.6,2.1-3.2,3-4.6c1.4,0.5,2.5,0.9,3.9,1.4c0.9-0.9,1.4-1.6,2.1-2.3c-0.5-1.4-0.7-2.8-1.2-4.2
		c1.6-1.2,3-2.1,4.6-3.2c1.2,0.9,2.1,1.9,3.2,2.8c0.9-0.5,1.6-0.7,2.5-1.2c0.2-1.4,0.5-2.8,0.5-4.4c1.9-0.5,3.7-0.7,5.6-1.2
		c0.7,1.2,1.2,2.5,1.9,3.7c0.9,0,1.9,0,2.8,0c0.7-1.4,1.4-2.5,2.1-3.9c1.9,0.5,3.7,0.7,5.6,0.9c0,1.4,0,2.8,0.2,4.2
		c0.9,0.5,1.9,0.7,2.5,0.9c1.2-0.9,2.3-1.9,3.5-2.8c1.6,1.2,3.2,2.1,4.6,3c-0.5,1.4-0.9,2.5-1.4,3.9c0.7,0.7,1.4,1.4,2.1,2.1
		c1.4-0.5,2.8-0.9,4.2-1.2c1.2,1.6,2.1,3,3.2,4.6c-0.9,1.2-1.9,2.1-2.5,3.2v0.2c0.5,0.7,0.7,1.6,1.2,2.3c1.4,0.2,2.8,0.5,4.4,0.5
		c0.5,1.9,0.7,3.7,1.2,5.6c-1.2,0.7-2.5,1.4-3.7,1.9c0,0.9,0,1.9,0,2.8c1.4,0.7,2.5,1.4,3.9,2.1c-0.5,1.9-0.7,3.7-0.9,5.6
		c-1.4,0.2-2.8,0.2-4.2,0.5c-0.5,0.9-0.7,1.9-0.9,2.5C57.9,44,58.4,44.5,58.6,44.9z"/>
	<g>
		<path class="st4" d="M35.2,0.7c1.9,0.5,3.5,0.7,5.3,0.9c0,1.4,0,2.8,0.2,4.2c0.9,0.5,1.9,0.7,2.5,0.9c1.2-0.9,2.3-1.9,3.5-2.8
			c1.6,1.2,3.2,2.1,4.6,3C51,8.3,50.5,9.5,50,10.9c0.7,0.7,1.4,1.4,2.1,2.1c1.4-0.5,2.8-0.9,4.2-1.2c1.2,1.6,2.1,3,3.2,4.6
			c-0.7,1.2-1.6,2.3-2.3,3.2v0.2c0.5,0.7,0.7,1.6,1.2,2.3c1.4,0.2,2.8,0.5,4.4,0.5c0.5,1.9,0.7,3.7,1.2,5.6
			c-1.2,0.7-2.5,1.4-3.7,1.9c0,0.9,0,1.9,0,2.8c1.4,0.7,2.5,1.4,3.9,2.1c-0.5,1.9-0.7,3.7-0.9,5.6c-1.4,0.2-2.8,0.2-4.2,0.5
			c-0.5,0.9-0.7,1.9-0.9,2.5c0.5,0.5,0.7,0.9,1.2,1.4c0,0-0.2,0-0.5,0.2c0-0.2,0-0.5-0.2-0.5v0.2c-0.2,0-0.2-0.2-0.5-0.2h-0.2
			c0-0.2,0-0.2,0-0.5c-0.2,0-0.2,0.2-0.5,0.2C57.2,44.2,57,44,57,43.8c0.5-1.2,0.9-2.5,1.4-3.7c1.4-0.2,2.8-0.2,3.9-0.5
			c0.2-0.7,0.2-1.6,0.5-2.3c0-0.7,0.2-1.2,0.5-1.9c-0.9-0.5-2.1-1.2-3-1.6c-0.2,0-0.5-0.2-0.7-0.2c0-0.5,0-0.7,0-1.2
			c0-0.9,0-1.9,0-2.8c0.2,0,0.5-0.2,0.7-0.5c0.9-0.5,1.9-0.9,2.8-1.4c-0.5-1.4-0.7-2.8-0.9-3.9c-1.4-0.2-2.8-0.2-4.2-0.5
			c-0.5-1.2-1.2-2.3-1.6-3.5c0.9-1.2,1.9-2.1,2.5-3.2c-0.7-1.2-1.6-2.3-2.3-3.5c-1.4,0.5-2.8,0.7-3.9,1.2c-0.9-0.9-1.9-1.9-3-2.8
			C50,10.2,50.5,9,51,7.6c-1.2-0.7-2.3-1.4-3.5-2.1c-1.2,0.9-2.3,1.9-3.2,2.5c-1.2-0.5-2.5-0.9-3.7-1.4c0-1.4,0-2.8-0.2-3.9
			c-1.4-0.2-2.8-0.5-4.2-0.7c-0.7,1.2-1.4,2.5-2.1,3.7c-0.5,0-0.7,0-1.2,0c-0.9,0-1.9,0-2.8,0c-1.2-0.9-1.6-2.1-2.3-3.5
			C26.4,2.5,25,3,23.9,3.2c-0.2,1.4-0.5,2.8-0.5,4.2c-0.7,0.2-1.4,0.7-2.1,0.9c-0.5,0.2-1.2,0.5-1.6,0.7c-0.2-0.2-0.5-0.5-0.7-0.7
			c-0.7-0.7-1.6-1.4-2.3-2.1c-0.7,0.5-1.6,1.2-2.3,1.6c-0.5,0.5-0.7,0.7-1.2,0.9c0.5,1.4,0.7,2.5,1.2,3.9l0,0
			c-0.7,0.9-1.6,1.6-2.3,2.5c0,0-0.2,0.2-0.5,0.5c-1.2-0.7-2.3-0.9-3.7-1.4c-0.7,1.2-1.4,2.3-2.3,3.5c0.7,1.2,1.6,2.1,2.3,3
			c-0.2,0-0.5,0-0.7,0c0,0.2,0,0.5,0,0.5c-0.2,0-0.5,0-0.7,0c0.5,0,0.5-0.2,0.5-0.2c-0.7-1.2-1.6-2.3-2.5-3.5c1.2-1.6,2.1-3.2,3-4.6
			c1.4,0.5,2.5,0.9,3.9,1.4c0.7-0.7,1.4-1.4,2.1-2.1c-0.5-1.6-0.9-3-1.4-4.4c1.4-1.2,3-2.1,4.6-3.2c1.2,0.9,2.1,1.9,3.2,2.8
			c0.9-0.5,1.6-0.7,2.5-1.2c0.2-1.4,0.5-2.8,0.5-4.4c1.9-0.5,3.7-0.7,5.6-1.2c0.7,1.2,1.2,2.5,1.9,3.7c0.9,0,1.9,0,2.8,0
			C33.6,3.2,34.3,2.1,35.2,0.7"/>
		<path class="st4" d="M7.9,20.6l0.2,0.2c-0.2,0.7-0.5,1.2-0.7,1.9c-0.2,0.5-0.5,1.2-0.7,1.9c-0.5,0-0.9,0-1.4,0.2
			c-0.5-0.2-0.7-0.2-0.9-0.2c0.2-0.2,0.2-0.7,0.5-0.7c0,0-0.2,0-0.5,0c0.5,0,0.9,0,1.4-0.2c0.5-0.7,0.9-1.4,1.2-2.3l0,0
			c0.2,0,0.5,0,0.7,0c0-0.2-0.2-0.2,0-0.5C7.6,20.8,7.9,20.8,7.9,20.6L7.9,20.6z"/>
		<path class="st4" d="M1.9,23.9c0.9,0,1.9-0.2,2.5-0.2c0,0,0.2,0,0.5,0c-0.2,0.5-0.5,0.7-0.7,0.9c0.2,0,0.7,0,0.9,0.2
			c-0.2,0-0.5,0-0.7,0c-0.5,0-1.2,0-1.6,0c0,0.5,0,0.7-0.2,1.2c-0.5,0-0.9,0.2-0.9,0.7v0.2c0,0,0,0-0.2,0
			C1.6,25.7,1.6,24.8,1.9,23.9L1.9,23.9z"/>
		<path class="st4" d="M1.6,26.4c0-0.5,0.5-0.7,0.9-0.7c0,0.2,0,0.5-0.2,0.7c0,0.7-0.2,1.2-0.5,1.9c0,0,0-0.2-0.2-0.2
			c-0.2,0.2-0.5,0.2-0.7,0.5c0,0.2-0.2,0.5-0.2,0.7c0,0,0,0-0.2,0c0.2-0.9,0.2-1.9,0.5-2.5c0,0,0,0,0.2,0
			C1.6,26.6,1.6,26.6,1.6,26.4L1.6,26.4z"/>
		<path class="st4" d="M1.4,28.7c0.2-0.2,0.5-0.2,0.7-0.5c0,0,0,0.2,0.2,0.2c0,0.2,0,0.2,0,0.5c0.2,0,0.5,0.2,0.7,0.5
			c0,0-0.2,0.2-0.2,0.5H2.5c0,0.2,0,0.2,0.2,0.5c0,0-0.2,0-0.2,0.2c-0.5-0.2-0.9-0.5-1.2-0.7c0,0,0,0,0-0.2c0,0,0,0,0.2,0
			C1.2,29.2,1.4,29,1.4,28.7 M53.1,49.3c0.2,0,0.5,0,0.5,0.2c1.2,0.5,2.1,0.7,3.2,0.9c0,0,0,0,0-0.2c0.2,0,0.5,0,0.5-0.2
			c0,0.2,0.2,0.5,0.2,0.7c-0.2,0.2-0.2,0.5-0.5,0.7c-1.4-0.5-2.5-0.7-3.9-1.2c-0.2,0-0.2-0.2-0.5-0.2c0,0,0-0.2,0-0.5
			c-0.2,0-0.5,0.2-0.7,0.2C52.6,49.8,52.8,49.6,53.1,49.3L53.1,49.3z"/>
		<path class="st4" d="M2.8,29.4L2.8,29.4c0.7,0.5,1.2,0.7,1.9,0.9c-0.2,0-0.5,0.2-0.7,0.5c0,0,0.2,0,0.5,0.2c0,0-0.2,0-0.5,0.2
			C3.5,31,3,30.8,2.5,30.6l0,0c0,0,0.2,0,0.2-0.2s0-0.2-0.2-0.5h0.2C2.5,29.7,2.8,29.4,2.8,29.4L2.8,29.4z"/>
		<path class="st4" d="M24.3,59.8c0.2,0,0.5-0.2,0.5-0.5c0,0,0,0.2,0,0.5c0,0.5,0,0.7,0.2,1.2c0,0.2-0.2,0.5-0.5,0.7
			c-0.2,0-0.2-0.2-0.5-0.5l0,0l0,0c0-0.5-0.2-0.9-0.2-1.4l0,0C24.1,59.8,24.1,59.8,24.3,59.8L24.3,59.8z"/>
		<path class="st4" d="M4.4,30.3c0.5,0.2,0.7,0.5,1.2,0.7c0,0.5,0,0.9,0,1.2c0,0.2,0,0.2,0,0.5c-0.2-0.2-0.2,0-0.5,0.2
			c0,0,0,0-0.2,0c0,0,0,0.2,0,0.5s-0.2,0.5-0.2,0.5c0-0.7,0-1.4,0-2.1c-0.2-0.2-0.7-0.5-1.2-0.7c0,0,0.2,0,0.5-0.2
			c0,0-0.2,0-0.5-0.2C3.9,30.6,4.2,30.3,4.4,30.3L4.4,30.3z"/>
		<path class="st4" d="M5.6,32.7c0-0.2,0-0.2,0-0.5c0,0.9,0,1.9,0,2.8c-0.9,0.5-1.6,0.9-2.5,1.4c0,0-0.2,0-0.2-0.2S3,35.7,3,35.4
			c0,0,0,0,0.2,0c0,0,0-0.2-0.2-0.2l0,0c0.5-0.2,1.2-0.5,1.6-0.7c0-0.2,0-0.5,0-0.7c0-0.2,0.2-0.5,0.2-0.5s0-0.2,0-0.5
			c0,0,0,0,0.2,0C5.3,32.7,5.3,32.4,5.6,32.7L5.6,32.7z"/>
		<path class="st4" d="M1.2,36.1c0.7-0.5,1.4-0.7,2.1-1.2c0,0,0,0.2,0.2,0.2c0,0,0,0-0.2,0c0,0.2-0.2,0.5-0.2,0.7c0,0,0.2,0,0.2,0.2
			c-0.5,0.2-0.7,0.5-1.2,0.5c0.2,0.5,0.2,0.9,0.2,1.2c-0.5,0-0.5,0.5-0.5,0.7c-0.2,0.2-0.2,0.5-0.2,0.9l0,0
			C1.6,38.5,1.4,37.3,1.2,36.1"/>
		<path class="st4" d="M5.8,41.2c0,0,0.2,0,0.5,0c0.5,0,0.7,0,0.9,0c0.5,1.2,0.9,2.3,1.4,3.5c-0.5,0.7-0.9,1.4-1.6,2.1
			c0,0-0.2,0.2-0.2,0.5c0-0.5-0.2-0.7-0.5-1.2c0.5-0.5,0.7-0.9,1.2-1.4c-0.5-0.7-0.7-1.6-1.2-2.3c-0.5,0-0.9,0-1.4-0.2h0.2
			c0-0.2,0-0.5,0-0.7C5.6,41.2,5.6,41.2,5.8,41.2L5.8,41.2z"/>
		<path class="st4" d="M2.3,37.8c0.2,0.9,0.5,2.1,0.7,3c0.2,0,0.5,0,0.7,0c0,0.2-0.2,0.5-0.2,0.7c0,0-0.2,0-0.5,0
			c-0.2,0-0.7,0-0.9,0c-0.2-0.7-0.5-1.4-0.5-2.1l0,0c0-0.2,0-0.7,0.2-0.9C2.1,38.2,2.1,38,2.3,37.8 M41.2,57.5
			c1.2-0.5,2.3-1.2,3.7-1.6c1.2,0.9,2.1,1.9,3.2,2.5c0.5-0.2,0.7-0.5,0.9-0.7c0.5-0.2,0.7-0.5,1.2-0.7c0.2,0.2,0.5,0.2,0.7,0.2
			s0.2,0,0.5,0.2c-1.2,0.7-2.3,1.6-3.2,2.3c-1.2-0.9-2.1-1.9-3.2-2.5c-0.7,0.5-1.6,0.7-2.5,1.2c-0.2,1.4-0.2,2.8-0.5,4.2
			c-0.7,0-1.2,0.2-1.9,0.5c0,0-0.2,0-0.2-0.2s0.2-0.7,0.5-0.7h-0.2c0.2,0,0.5,0,0.7-0.2C41,60.2,41.2,58.8,41.2,57.5L41.2,57.5z"/>
		<path class="st4" d="M52.4,49.8c0.2,0,0.5-0.2,0.7-0.2c0,0,0,0.2,0,0.5c0.2,0,0.2,0.2,0.5,0.2c-0.7,0.7-1.2,1.2-1.9,1.9
			c0-0.2,0-0.5,0.2-0.5h-0.2c0,0,0.2-0.2,0-0.5c-0.2,0-0.5,0.2-0.7,0.2C51.4,51,51.9,50.5,52.4,49.8L52.4,49.8z"/>
		<path class="st4" d="M3.7,40.8C3.7,40.8,3.9,40.8,3.7,40.8c0.7,0,1.4,0,2.1,0.2c-0.2,0-0.5,0-0.5,0.2s0,0.5,0,0.7H5.1
			c-0.7,0-1.4,0-1.9-0.2c0.2,0,0.2,0,0.5,0C3.5,41.5,3.7,41.2,3.7,40.8L3.7,40.8z"/>
		<path class="st4" d="M57.2,44.2c0.2,0,0.2-0.2,0.5-0.2c0,0.2,0,0.2,0,0.5c0,0,0,0,0.2,0c0.2,0,0.2,0.2,0.5,0.2v-0.2
			c0.2,0,0.2,0.2,0.2,0.5c0,0,0.2,0,0.5-0.2l0,0c0.5,0.7,1.2,1.4,1.6,2.1c-0.5,0.7-0.9,1.4-1.4,2.1c-0.2,0-0.2-0.5-0.5-0.5l0,0
			c0,0-0.2,0-0.5,0c0.5-0.5,0.7-1.2,1.2-1.6C58.6,45.9,57.9,45.2,57.2,44.2L57.2,44.2z"/>
		<path class="st4" d="M4.9,48c0.5-0.7,0.9-1.4,1.4-1.9c0.2,0.5,0.2,0.7,0.5,1.2C6.5,47.5,6.3,47.7,6,48c0.7,1.2,1.6,2.3,2.3,3.5
			c0.2,0,0.5,0,0.7-0.2l0,0c0,0-0.2,0-0.2,0.2L9,51.7c0,0,0,0,0,0.2c0,0,0.2,0,0.2,0.2c0,0.2-0.7,0.2-1.2,0.5C7.2,51,6,49.6,4.9,48
			L4.9,48z"/>
		<path class="st4" d="M58.1,48.4c0.2,0,0.2,0,0.5,0l0,0c0.2,0,0.5,0.5,0.5,0.5c-0.5,0.7-0.9,1.4-1.2,1.9c0-0.2,0-0.5-0.2-0.7
			c-0.2,0-0.5,0.2-0.5,0.2C57.5,49.6,57.9,49.1,58.1,48.4L58.1,48.4z"/>
		<path class="st4" d="M12,50.3c0.2,0,0.5,0,0.5-0.2c0.9,0.9,1.9,1.9,2.8,2.5c0,0.5-0.2,0.9-0.5,1.4c0,0,0,0-0.2-0.2
			c0,0-0.2,0-0.5,0c-0.2-0.2-0.2-0.5-0.2-0.7h-0.2c0-0.2,0-0.5,0.2-0.5c-0.7-0.7-1.4-1.2-2.1-1.9c0,0-0.2,0-0.5,0s-0.5-0.2-0.5-0.5
			c0-0.2,0-0.5,0.2-0.5C11.8,50.5,11.8,50.3,12,50.3L12,50.3z"/>
		<path class="st4" d="M9.3,51.2c0.7-0.2,1.4-0.5,2.3-0.7c0,0.2,0,0.5-0.2,0.5c0,0.2,0.2,0.5,0.5,0.5c-0.7,0.2-1.4,0.5-2.1,0.7
			c0,0-0.2,0-0.2-0.2c0,0,0,0,0-0.2C9.5,51.4,9.5,51.4,9.3,51.2C9.5,51.2,9.5,51.2,9.3,51.2C9.5,51.2,9.3,51.2,9.3,51.2L9.3,51.2
			L9.3,51.2z"/>
		<path class="st4" d="M50.7,51.4c0.2,0,0.5-0.2,0.7-0.2c0,0,0,0.2,0,0.5c0,0,0,0,0.2,0c-0.2,0.2-0.5,0.5-0.2,0.5
			c0.5,1.4,0.9,2.8,1.2,4.2l0,0c-0.2-0.5-0.7-0.7-1.2-0.5c-0.2-0.7-0.5-1.2-0.7-1.9s-0.5-1.4-0.7-2.1C50.5,51.9,50.7,51.7,50.7,51.4
			L50.7,51.4z"/>
		<path class="st4" d="M14.1,53.5C14.1,53.5,14.4,53.5,14.1,53.5c0,0.2,0.2,0.5,0.5,0.7c0,0,0.2,0,0.5,0c0,0,0,0,0.2,0.2
			c0,0.2-0.2,0.5-0.2,0.7c0,0.5-0.2,0.7-0.2,0.9h-0.2l0,0c-0.2,0-0.5-0.2-0.5-0.2C13.7,54.9,13.9,54.2,14.1,53.5L14.1,53.5z"/>
		<path class="st4" d="M13.2,57.2c0-0.5,0.2-1.2,0.5-1.6c0.2,0,0.5,0.2,0.5,0.2l0,0h0.2c0,0.2-0.2,0.7-0.2,0.9
			c0.7,0.5,1.6,1.2,2.5,1.4h-0.2c-0.2,0-0.5-0.2-0.5-0.5c0,0,0,0,0,0.2l-0.2-0.2c-0.2,0-0.5,0-0.7,0.2l0,0
			C14.1,57.9,13.7,57.5,13.2,57.2L13.2,57.2z"/>
		<path class="st4" d="M30.8,59.1c0-0.2,0.2,0,0.5-0.2c1.2,0,2.3,0,3.7,0c0,0.2,0.2,0.5,0.5,0.7C35.2,59.8,35.2,60,35,60
			c0,0-0.2-0.2-0.2-0.5c0,0-0.2,0-0.2,0.2c0,0,0,0,0-0.2c-0.9,0-1.9,0-2.8,0c-0.2,0.5-0.5,0.9-0.7,1.4l0,0c-0.2,0-0.5,0.2-0.5,0.2
			c-0.2,0-0.5,0-0.5,0s0,0-0.2-0.2C30.1,60.7,30.6,60,30.8,59.1L30.8,59.1z"/>
		<path class="st4" d="M51.7,56.1c0.5-0.2,0.7,0.2,1.2,0.5c-0.5,0.2-0.7,0.5-1.2,0.9c0,0-0.2-0.2-0.5-0.2s-0.5,0-0.7-0.2
			C50.7,56.5,51.2,56.3,51.7,56.1 M34.7,60.2c0.2-0.2,0.2-0.5,0.5-0.5c0.5,0.9,1.2,1.9,1.6,2.8c1.2-0.2,2.1-0.5,3.2-0.7h0.2
			c-0.2,0.2-0.5,0.5-0.5,0.7c0,0,0.2,0,0.2,0.2c-1.2,0.2-2.5,0.5-3.7,0.7c-0.7-1.2-1.4-2.3-2.1-3.5c0,0,0.2,0,0.2-0.2
			C34.7,60,34.7,60,34.7,60.2L34.7,60.2z"/>
		<path class="st4" d="M20.8,56.5L20.8,56.5c1.4,0.5,2.5,0.9,3.7,1.4v0.2h-0.2c0,0-0.2,0.2-0.5,0.2c-0.2,0-0.5,0-0.7,0
			c-0.7-0.2-1.4-0.5-2.1-0.7c-0.5,0.2-0.7,0.7-1.2,0.9l0,0c-0.2-0.2-0.7,0-0.9,0l-0.2-0.2C19.5,57.5,20.2,57,20.8,56.5L20.8,56.5z"
			/>
		<path class="st4" d="M24.1,58.1c0,0,0.2-0.2,0.5-0.2h0.2c0,0.2,0,0.2,0,0.5c0,0.5,0,0.7,0.2,1.2c-0.2,0-0.2,0.2-0.5,0.5
			c-0.2,0-0.2,0-0.5,0l0,0l0,0c0-0.5,0-0.9-0.2-1.4c-0.2,0-0.2,0-0.5-0.2C23.4,58.1,23.6,58.1,24.1,58.1L24.1,58.1z"/>
		<path class="st4" d="M14.8,58.1c0.2,0,0.5-0.2,0.7-0.2c0,0,0.2,0,0.2,0.2c0,0,0,0,0-0.2c0,0.2,0.2,0.2,0.5,0.5h0.2
			c0.5,0.2,0.7,0.5,1.2,0.7c0.5-0.2,0.7-0.7,1.2-0.9l0.2,0.2c0.2,0,0.7,0,0.9,0c-0.7,0.7-1.4,1.2-2.1,1.9
			C16.7,59.5,15.8,58.8,14.8,58.1L14.8,58.1z"/>
		<path class="st4" d="M24.3,61.4c0.2-0.2,0.5-0.5,0.5-0.7c0,0.2,0,0.7,0,0.9c0,0,0.2,0,0.5,0c1.2,0.2,2.5,0.5,3.7,0.7
			c0.2-0.5,0.5-0.7,0.5-1.2c0,0,0,0,0.2,0.2c0.2,0,0.5,0,0.5,0c0.2,0,0.2-0.2,0.5-0.2c-0.5,0.7-0.7,1.6-1.2,2.3
			c-1.9-0.5-3.7-0.7-5.6-0.9c0-0.5,0-0.9-0.2-1.4l0,0C24.1,61.4,24.3,61.4,24.3,61.4L24.3,61.4z"/>
	</g>
	<path class="st1" d="M57.2,50.7C57.2,50.7,57.5,50.7,57.2,50.7c0.5-0.7,0.9-1.4,1.2-1.9c0.2-0.5,0.7-1.2,1.2-1.6
		c-0.7-0.9-1.4-1.9-2.1-2.5C57.2,44.5,57,44.2,57,44c0.5-1.2,0.9-2.5,1.4-3.7c1.4-0.2,2.8-0.2,4.2-0.5c0.2-0.7,0.2-1.6,0.5-2.3
		c0-0.7,0.2-1.2,0.5-1.9c-1.2-0.5-2.1-1.2-3-1.6c-0.2,0-0.5-0.2-0.7-0.5c0-0.5,0-0.7,0-1.2c0-0.9,0-1.9,0-2.8c0.2,0,0.5-0.2,0.7-0.5
		c0.9-0.5,1.9-0.9,2.8-1.4c-0.5-1.4-0.7-2.8-0.9-4.2c-1.4-0.2-2.8-0.5-4.2-0.5c-0.5-1.2-1.2-2.3-1.6-3.5c0.7-1.2,1.4-2.1,2.3-3.2
		c-0.7-1.2-1.6-2.3-2.3-3.5c-1.4,0.5-2.8,0.7-4.2,1.2c-1.2-0.9-2.1-1.9-3-2.8c0.5-1.4,0.9-2.5,1.4-3.9c-1.2-0.7-2.3-1.4-3.5-2.3
		c-1.2,0.9-2.3,1.9-3.5,2.5c-1.2-0.5-2.5-0.9-3.7-1.4c0-1.4,0-2.8-0.2-4.2c-1.4-0.2-2.8-0.5-4.2-0.7c-0.7,1.2-1.4,2.5-2.1,3.7
		c-0.5,0-0.7,0-1.2,0c-0.9,0-1.9,0-2.8,0c-0.7-1.2-1.2-2.5-1.9-3.7c-1.4,0.5-2.8,0.7-4.2,0.9c-0.2,1.4-0.5,2.8-0.5,4.2
		c-0.7,0.5-1.4,0.7-2.1,0.9c-0.2,0.5-0.9,0.7-1.4,0.9c-0.2-0.2-0.5-0.5-0.7-0.7c-0.7-0.7-1.6-1.4-2.5-2.1c-0.7,0.5-1.6,1.2-2.3,1.6
		c-0.5,0.5-0.7,0.7-1.2,0.9c0.5,1.4,0.9,2.5,1.4,3.9l0,0c-0.9,1.2-1.9,1.9-2.5,2.8c0,0-0.2,0.2-0.5,0.5c-1.4-0.7-2.5-1.2-3.9-1.4
		c-0.7,1.2-1.4,2.3-2.3,3.7c0.7,1.2,1.6,2.1,2.5,3l0.2,0.2c-0.2,0.7-0.5,1.2-0.7,1.9c-0.2,0.5-0.5,1.2-0.7,1.9c-0.5,0-1.2,0-1.4,0.2
		c-0.2,0-0.5,0-0.7,0c-0.5,0-1.2,0-1.6,0.2c0,0.5,0,0.7-0.2,1.2c0,0.2,0,0.5-0.2,0.7c0,0.7-0.2,1.2-0.5,1.9
		c-0.2,0.2-0.2,0.5-0.2,0.5c0.2,0,0.5,0.2,0.7,0.5c0,0,0,0,0.2,0c0.5,0.2,1.2,0.7,1.6,0.9s0.7,0.5,1.2,0.7c0,0.5,0,0.9,0,1.4
		c0,0.9,0,1.9,0,2.8c-0.9,0.5-1.6,0.9-2.5,1.4c-0.5,0.2-0.7,0.5-1.2,0.5c0,0.5,0.2,0.7,0.2,1.2c0.5,0.7,0.5,1.6,0.9,2.5
		c0.2,0,0.5,0,0.7,0c0,0,0,0,0.2,0c0.7,0,1.2,0,1.9,0.2c0,0,0.2,0,0.5,0c0.5,0,0.7,0,0.9,0c0.5,1.2,0.9,2.3,1.4,3.5
		c-0.5,0.7-1.2,1.4-1.6,2.1c0,0.2-0.2,0.2-0.5,0.5c0,0.5-0.2,0.7-0.5,0.9c0.7,1.2,1.6,2.3,2.5,3.5c0.2,0,0.5,0,0.7-0.2l0,0
		c0.7-0.2,1.4-0.5,2.3-0.7c0.2,0,0.2,0,0.5-0.2c0.2,0,0.5,0,0.5-0.2c0.9,0.9,1.9,1.9,2.8,2.5c0,0.5-0.2,0.9-0.5,1.4
		c0,0.2-0.2,0.5-0.2,0.7c0,0.5-0.2,0.7-0.2,0.9c0,0.2-0.2,0.7-0.2,0.9c0.7,0.5,1.6,1.2,2.5,1.6c0.5,0.2,0.7,0.5,1.2,0.7
		c0.5-0.2,0.7-0.7,1.2-0.9c0.7-0.5,1.4-1.2,1.9-1.6c0,0,0,0,0.2,0c1.2,0.5,2.3,0.9,3.7,1.4v0.2c0,0.2,0,0.2,0,0.5
		c0,0.5,0,0.7,0.2,1.2c0,0,0,0.2,0,0.5c0,0.5,0,0.7,0.2,1.2c0,0.2,0,0.7,0,0.9c0,0,0.2,0,0.5,0c1.2,0.2,2.5,0.5,3.7,0.7
		c0.2-0.5,0.5-0.7,0.5-1.2c0.5-0.9,0.9-1.6,1.2-2.5c0-0.2,0.2,0,0.5-0.2c1.2,0,2.5,0,3.7,0c0,0.2,0.2,0.5,0.5,0.7
		c0.5,0.9,1.2,1.9,1.6,2.8c1.2-0.2,2.1-0.5,3.2-0.7c0.2,0,0.5,0,0.7-0.2c0-1.4,0.2-2.8,0.5-4.2c1.2-0.5,2.5-1.2,3.7-1.6
		c1.2,0.9,2.1,1.9,3.2,2.5c0.5-0.2,0.7-0.5,0.9-0.7c0.5-0.2,0.7-0.5,1.2-0.9c0.5-0.2,0.9-0.7,1.4-0.9c-0.2-0.7-0.5-1.2-0.7-1.9
		c-0.2-0.7-0.5-1.4-0.7-2.1c0.2-0.2,0.5-0.5,0.5-0.5c0.5-0.5,1.2-1.2,1.6-1.6c0.2-0.2,0.5-0.5,0.7-0.7c0.2,0,0.5,0,0.5,0.2
		C54.9,50.3,56.1,50.5,57.2,50.7z"/>
	<path class="st3" d="M8.8,34.3c0-0.5,0-1.2,0-1.9c0-0.2,0-0.5,0-0.5c0-13.4,10.7-24.1,23.9-24.1S56.5,18.8,56.5,32
		c0,0.7,0,1.6,0,2.3"/>
	<path class="st1" d="M57,34.5C55.8,47.3,45.2,57,32.4,57C19.5,57,9,47,7.9,34.3"/>
	<path class="st1" d="M11.4,44h0.2h41.7c0,0,4.4-8.1,2.8-15.3c-2.5,1.2-11.6,5.3-11.6,5.3H44v-5.3l-11.6,5.3L32,34.5v-5.8l-12,5.3
		v-5.3L8.3,34.1C8.6,34.1,9.7,41.5,11.4,44z"/>
	<polygon class="st5" points="8.6,32.9 21.5,26.9 21.5,32.4 33.4,26.9 33.4,32.4 45.4,26.9 45.4,32.4 55.8,27.6 56.1,28.7 
		44.5,34.1 44,34.1 44.2,28.7 32,34.3 32.2,28.7 20.2,34.1 20.2,28.7 8.6,34.1 	"/>
	<polyline class="st6" points="55.8,27.6 45.4,32.4 45.4,26.9 33.4,32.4 33.4,26.9 21.5,32.4 21.5,26.9 8.6,32.9 	"/>
	<path class="st7" d="M31,40.5c0,0,0.2-0.2,0.5-0.2"/>
	<path class="st1" d="M12.5,23.4L12.5,23.4H13c3.7,0,4.2,0,4.2,0l2.3-0.2l1.2,0.2h1.9h0.5h1.2l0,0c-0.2,0-0.2,0.2-0.2,0.5l-0.2,7.6
		l0,0l1.9-0.9l-0.2-7.2l0,0c0,0,0.5-0.5-0.2-0.9c-0.7-0.5-2.3,0.2-2.3,0.2l-1.9,0.2h-0.5l0,0c-0.2-0.2-0.5-0.2-0.9-0.2
		c-0.5,0-0.9,0.2-1.4,0.2c-0.7,0.2-2.1,0.2-2.1,0.2l-0.2-0.2c-0.2-0.2-0.7-0.2-0.9,0l0,0"/>
	<path class="st1" d="M50,30.3L50,30.3l-0.5-7.4c0,0,0.2-0.5-1.2-0.7c-1.4,0-3.7,0.2-3.9,0.2l0,0h-1.2l0,0c0,0-1.4-0.5-2.3-0.2
		s-1.6,0.5-1.6,0.7l0,0l-0.7-0.2l0,0l-0.5-0.2c-0.2,0-0.5-0.2-0.9,0l-0.9,0.2c0,0,1.4,0,2.5,0.5h0.2h0.2l0,0c0.2,0,0.5,0,0.7,0
		c0.2,0,0.5,0,0.7,0c0.5,0,0.9,0,1.4,0c0.5,0,0.9,0,1.2,0l0,0v0.5v4.2l0,0l1.4-0.7l0,0l-0.2-3.7l0,0L44,23.2c0,0,0.9,0.2,1.2,0h0.2
		l0,0c0,0,0.2,0,0.5,0l0,0l0,0c0,0,0.2,0,0.5,0c0-0.2,0.5-0.2,0.5-0.2l0,0c0.2,0.2,0.7,0.5,0.7,0.5l0.2,0.2v7.6l0,0L50,30.3z"/>
	<g>
		<g>
			<path class="st5" d="M22.2,55.1C22.5,55.1,22.5,54.9,22.2,55.1C22.2,54.9,22.2,55.1,22.2,55.1L22.2,55.1z"/>
		</g>
	</g>
	<g>
		<g>
			<path class="st5" d="M22.2,55.1L22.2,55.1h0.2l0,0l0,0H22.2C22.2,54.9,22.2,54.9,22.2,55.1L22.2,55.1L22.2,55.1
				C22,54.9,22,54.9,22.2,55.1C22,55.1,22.2,55.1,22.2,55.1L22.2,55.1z"/>
		</g>
	</g>
	<g>
		<g>
			<path class="st5" d="M22.2,55.1c0.2,0,0.2-0.5,0-0.5S22,55.1,22.2,55.1L22.2,55.1z"/>
		</g>
	</g>
	<g>
		<path class="st8" d="M16.4,13.9c0,0,1.9,1.2,5.3,0.5c3.5-0.7,3.9-1.2,3.9-1.2l2.5-0.9c0.5-0.2,0.7-0.2,1.2,0c0,0,0,0,0.2,0.2l0,0
			c0,0,2.5-0.7,5.1,0c1.9,0.5,3.2,0.9,3.9,0.9c0.2,0,0.5,0,0.7,0c1.2,0,4.6,0.5,7.6-0.5c0,0,5.1,4.2,6.5,7.6c0,0-6.9-1.4-9.7-1.4
			c0,0-4.4-0.2-5.3,0.7l0,0c0,0,0.7,0.9,0,1.4c-0.7,0.5-1.4-0.2-1.4-0.5l0,0c0,0,0.5,0.9-0.2,1.2c-0.7,0.5-1.4,0-1.4,0
			s0,0.7-0.5,0.7c-0.5,0.2-0.7,0-0.9-0.2l0,0c0,0.2,0,0.5-0.7,0.5s-3.5-1.4-5.1-1.9c-0.9-0.5-2.1-0.7-3-0.7c-0.9,0-1.9,0-2.8,0.2
			c-2.3,0.5-12.3,2.5-12.3,2.5S11.4,18.5,16.4,13.9z"/>
		<path class="st6" d="M38.2,19.9c0,0-6.3-5.3-6.5-5.6c-0.5-0.2-1.6-0.2-2.8,0.9S26.6,16,26.6,16s-0.9,0.2-0.9-0.2
			c0-0.5,2.3-2.5,4.2-3.2"/>
		<line class="st6" x1="36.8" y1="20.8" x2="32.9" y2="18.3"/>
		<line class="st6" x1="35.2" y1="22" x2="32" y2="20.2"/>
		<line class="st6" x1="34.3" y1="22.9" x2="30.8" y2="21.3"/>
		<path class="st6" d="M26.6,16c0,0,0.5-0.5,1.2-0.9c0,0,0-0.2,0-0.5s0-0.5-0.2-0.7h-0.2"/>
		<path class="st8" d="M30.8,22.5c0,0-0.2,0.5-0.9,0.5c-0.5,0-0.7-0.2-0.7-0.5l0,0c-0.2,0-0.5,0.2-0.9,0.2S27.6,22,27.6,22v-0.2
			c0,0-0.5,0.5-1.2,0.2c-0.5-0.2-0.5-0.7-0.5-0.9l0,0c-0.2,0.2-0.5,0.5-0.9,0.5c-0.5-0.2-0.9-0.5-0.9-1.2l0,0
			C24.1,20.4,26.2,19.9,30.8,22.5z M27.6,21.8l0.5-0.7 M29,22.5l0.5-0.7 M26.2,20.6l-0.2,0.5l-0.2,0.5"/>
		<path class="st6" d="M38.2,19.9c0,0-0.5-0.2-0.9,0c-0.2,0.5,0,0.9,0,0.9v0.2"/>
	</g>
	<g>
		<g>
			<path class="st5" d="M22.2,55.1c0.2,0,0.2-0.5,0-0.5S22,55.1,22.2,55.1L22.2,55.1z"/>
		</g>
	</g>
	<path class="st9" d="M8.3,35.9c-0.2-1.2-0.2-2.1-0.2-3c0-0.2,0-0.5,0-0.5C8.1,19,19,7.9,32.4,7.9s24.3,10.9,24.3,24.6
		S45.9,57,32.4,57C20.2,57,10,47.7,8.3,35.9"/>
	<path class="st10" d="M8.8,35.9c-0.2-0.9-0.2-2.1-0.2-3c0-0.2,0-0.5,0-0.5C8.6,19,19.2,8.3,32.4,8.3s23.9,10.9,23.9,24.1
		S45.6,56.5,32.4,56.5C20.4,56.5,10.4,47.5,8.8,35.9"/>
	<g>
		<g>
			<polygon class="st11" points="10,44 24.3,44 24.3,52.1 			"/>
			<polygon class="st11" points="41.5,44 54.7,44 41.2,52.6 			"/>
			<path class="st11" d="M21.8,55.8c0,0-0.5-0.5,0.2-0.7c0.7-0.2,0.5,0,0.5,0s1.4-0.9,2.1-1.9c0-2.1,0-9.7,0-9.7h17.1v9.5
				c0,0,1.2,2.1,2.1,2.1c0.7,0.2,0.7,0.2,0.7,0.2s0.2,0.5,0,0.5s-7.9,0-7.9,0s-0.5-3.2-3.9-2.8c-3.7,0.5-3.2,2.8-3.2,2.8
				S21.8,55.8,21.8,55.8z"/>
		</g>
	</g>
	<g>
		<g>
			<path class="st12" d="M22.2,55.6c0,0,0.2,0,0.5,0l0,0l0,0c0,0,0,0-0.2,0l0,0l0,0l0,0l0,0l0,0l0,0H22.2C22,55.6,22,55.6,22.2,55.6
				L22.2,55.6z"/>
		</g>
	</g>
	<g>
		<g>
			<path class="st12" d="M22,55.6C22.2,55.6,22.2,55.6,22,55.6C21.8,55.4,21.8,55.6,22,55.6L22,55.6z"/>
		</g>
	</g>
	<g>
		<g>
			<path class="st12" d="M22.2,55.6L22.2,55.6L22.2,55.6L22.2,55.6L22.2,55.6L22.2,55.6C22.2,55.4,22.2,55.4,22.2,55.6L22.2,55.6
				L22.2,55.6L22.2,55.6L22.2,55.6c0.5,0,0.5,0,0.5-0.2c0,0,0,0,0-0.2c0,0,0,0-0.2,0l0,0l0,0l0,0l0,0l0,0l0,0l0,0l0,0l0,0l0,0
				c-0.2,0-0.2,0-0.5,0C22.2,55.1,22.2,55.4,22.2,55.6L22.2,55.6L22.2,55.6z"/>
		</g>
	</g>
	<g>
		<g>
			<path class="st12" d="M22.7,55.1c-0.2,0-0.5,0-0.5,0.2l0,0l0,0c0,0,0,0,0.2,0c0,0,0,0,0.2,0l0,0l0,0l0,0l0,0l0,0
				C22.7,55.4,22.7,55.4,22.7,55.1C22.7,55.4,22.7,55.1,22.7,55.1L22.7,55.1z"/>
		</g>
	</g>
	<g>
		<g>
			<path class="st12" d="M22.5,55.6c0.2,0,0.5-0.2,0.7-0.2l0.2-0.2l-0.2-0.2c-0.2,0-0.5,0.2-0.7,0.2l-0.2,0.2
				C22.2,55.6,22.2,55.8,22.5,55.6L22.5,55.6z"/>
		</g>
	</g>
	<g>
		<g>
			<path class="st13" d="M22.5,55.4C22.5,55.4,22.5,55.1,22.5,55.4C22.2,55.1,22.2,55.4,22.5,55.4L22.5,55.4z"/>
		</g>
	</g>
	<g>
		<g>
			<path class="st13" d="M22.5,55.1C22.7,55.1,22.7,54.9,22.5,55.1C22.5,54.9,22.5,55.1,22.5,55.1L22.5,55.1z"/>
		</g>
	</g>
	<g class="st14">
		<g>
			<path class="st5" d="M22.5,55.1C22.5,55.1,22.5,54.9,22.5,55.1C22.2,54.9,22.2,55.1,22.5,55.1L22.5,55.1z"/>
		</g>
	</g>
	<g class="st14">
		<g>
			<path class="st5" d="M22.5,55.1c0.2,0,0.2-0.5,0-0.5S22.2,55.1,22.5,55.1L22.5,55.1z"/>
		</g>
	</g>
	<g class="st14">
		<g>
			<path class="st5" d="M22.5,55.1c0.2,0,0.2-0.5,0-0.5S22.2,55.1,22.5,55.1L22.5,55.1z"/>
		</g>
	</g>
	<g class="st14">
		<g>
			<path class="st5" d="M22.2,55.1c0.2,0,0.2-0.5,0-0.5S22,55.1,22.2,55.1L22.2,55.1z"/>
		</g>
	</g>
	<g class="st14">
		<g>
			<path class="st5" d="M22.5,55.1c0.2,0,0.2-0.5,0-0.5S22.2,55.1,22.5,55.1L22.5,55.1z"/>
		</g>
	</g>
	<g>
		<g>
			<path class="st12" d="M22.2,55.6c0.2,0,0.2-0.5,0-0.5C22,55.4,22,55.6,22.2,55.6L22.2,55.6z"/>
		</g>
	</g>
	<g>
		<g>
			<path class="st12" d="M22.5,55.6c0.2,0,0.2-0.5,0-0.5C22.2,55.1,22.2,55.6,22.5,55.6L22.5,55.6z"/>
		</g>
	</g>
	<g>
		<path class="st5" d="M13.1,38.5c0.4-0.4,1-0.5,1.5-0.4c0.3,0,0.7,0.2,0.9,0.5c0.2,0.2,0.2,0.5,0.3,0.8c-0.3,0-0.5,0-0.8,0
			c0-0.7-0.9-0.8-1.2-0.4c-0.1,0.2,0,0.5,0.2,0.6c0.5,0.3,1.2,0.2,1.7,0.7c0.5,0.6,0.2,1.7-0.5,2c-0.5,0.2-1.2,0.2-1.7,0
			c-0.4-0.2-0.7-0.7-0.7-1.3c0.3,0,0.5,0,0.8,0c0,0.7,0.9,1,1.3,0.5c0.2-0.2,0.2-0.6-0.1-0.7c-0.5-0.3-1-0.3-1.4-0.6
			C12.6,40,12.6,39,13.1,38.5z"/>
		<path class="st5" d="M20.5,38.2c0.7-0.2,1.5-0.1,1.9,0.5c0.2,0.3,0.2,0.7,0.3,1c-0.3,0-0.5,0-0.8,0c-0.1-0.3-0.1-0.6-0.4-0.7
			c-0.3-0.2-0.8-0.1-1,0.3c-0.2,0.4-0.2,0.9-0.2,1.4c0,0.3,0,0.6,0.2,0.8c0.3,0.5,1,0.5,1.2,0c0.1-0.2,0.1-0.4,0.1-0.6
			c-0.3,0-0.5,0-0.8,0c0-0.2,0-0.4,0-0.7c0.5,0,1.1,0,1.7,0c0,0.8,0,1.6,0,2.3c-0.2,0-0.3,0-0.5,0c0-0.2-0.1-0.4-0.1-0.5
			c-0.6,0.8-1.9,0.7-2.3-0.2c-0.3-0.7-0.3-1.4-0.2-2.2C19.6,39,20,38.4,20.5,38.2z"/>
		<g>
			<path class="st5" d="M31.9,38.1c0.6-0.2,1.4-0.1,1.8,0.5c0.3,0.5,0.4,1.1,0.4,1.7s-0.1,1.2-0.4,1.6c-0.4,0.6-1.2,0.7-1.8,0.5
				c-0.5-0.1-0.9-0.5-1.1-1.1c-0.2-0.7-0.2-1.4,0-2C31,38.8,31.4,38.3,31.9,38.1z M32.2,38.9c-0.4,0.1-0.5,0.6-0.5,1
				c0,0.5-0.1,1,0.1,1.4c0.2,0.5,0.9,0.6,1.3,0.2c0.2-0.3,0.3-0.7,0.3-1c0-0.4,0-0.8-0.1-1.2S32.6,38.8,32.2,38.9z"/>
		</g>
		<path class="st5" d="M16.4,38.1c0.9,0,1.8,0,2.6,0c0,0.3-0.1,0.5-0.1,0.8c-0.6,0-1.2,0-1.7,0c0,0.4,0,0.7,0,1c0.5,0,1.1,0,1.6,0
			c0,0.3,0,0.5,0,0.8c-0.5,0-1.1,0-1.6,0c0,0.4,0,0.7,0,1c0.6,0,1.2,0,1.7,0c0,0.3,0.1,0.5,0.1,0.8c-0.9,0-1.8,0-2.6,0
			C16.4,41,16.4,39.6,16.4,38.1z"/>
		<path class="st5" d="M23.5,38.1c0.3,0,0.6,0,0.8,0c0,1,0,2,0,3c0.1,0.7,1.2,0.7,1.3,0c0-1,0-2,0-3c0.3,0,0.6,0,0.8,0c0,1,0,2,0,3
			c0,0.4-0.2,0.8-0.5,1.1c-0.4,0.4-1,0.4-1.5,0.3c-0.6-0.1-1.1-0.7-1.1-1.4C23.5,40.1,23.5,39.2,23.5,38.1z"/>
		<g>
			<path class="st5" d="M27.3,38.1c0.6,0,1.2,0,1.8,0c0.4,0,0.8,0.2,1,0.6c0.3,0.6,0,1.4-0.5,1.6c0.2,0.1,0.4,0.3,0.5,0.6
				c0.2,0.4,0,1.1,0.3,1.4c0,0,0,0.1,0,0.2c-0.3,0.1-0.7,0.2-1-0.1c-0.3-0.4,0-1-0.3-1.4c-0.3-0.3-0.7-0.1-1-0.2c0,0.6,0,1.1,0,1.8
				c-0.3,0-0.6,0-0.8,0C27.3,41,27.3,39.6,27.3,38.1z M28.1,38.9c0,0.4,0,0.7,0,1.1c0.3,0,0.6,0,0.9,0c0.4-0.1,0.5-0.9,0-1
				C28.8,38.9,28.5,39,28.1,38.9z"/>
		</g>
		<path class="st5" d="M34.9,38.1c0.4,0,0.9,0,1.3,0c0.3,1,0.6,2.1,0.8,3.1c0.3-1,0.6-2.1,0.9-3.1c0.4,0,0.9,0,1.3,0
			c0,1.4,0,2.9,0,4.3c-0.3,0-0.6,0-0.8,0c0-1.1,0-2.1,0-3.2c-0.3,1.1-0.6,2.1-0.9,3.2c-0.3,0-0.6,0-0.9,0c-0.3-1.1-0.5-2.2-0.9-3.2
			c0,1.1,0,2.1,0,3.2c-0.3,0-0.5,0-0.8,0C34.9,41,34.9,39.6,34.9,38.1z"/>
		<path class="st5" d="M40.1,38.1c0.9,0,1.8,0,2.6,0c0,0.3-0.1,0.5-0.1,0.8c-0.6,0-1.2,0-1.7,0c0,0.4,0,0.7,0,1c0.5,0,1.1,0,1.6,0
			c0,0.3,0,0.5,0,0.8c-0.5,0-1.1,0-1.6,0c0,0.4,0,0.7,0,1c0.6,0,1.2,0,1.7,0c0,0.3,0.1,0.5,0.1,0.8c-0.9,0-1.8,0-2.6,0
			C40.1,41,40.1,39.6,40.1,38.1z"/>
		<path class="st5" d="M43.1,38.1c1,0,1.9,0,2.9,0c0,0.3,0,0.5,0,0.8c-0.3,0-0.7,0-1,0c0,1.2,0,2.4,0,3.5c-0.3,0-0.6,0-0.8,0
			c0-1.2,0-2.4,0-3.6c-0.3,0-0.7,0-1,0C43.1,38.7,43.1,38.4,43.1,38.1z"/>
		<g>
			<path class="st5" d="M47,38.1c0.3,0,0.7,0,1,0c0.4,1.4,0.9,2.9,1.3,4.3c-0.3,0-0.6,0-0.9,0c-0.1-0.3-0.2-0.5-0.2-0.8
				c-0.5,0-1,0-1.5,0c-0.1,0.3-0.2,0.5-0.2,0.8c-0.3,0-0.5,0-0.8,0C46.1,41,46.5,39.6,47,38.1z M47.4,39.1c-0.2,0.6-0.3,1.2-0.5,1.8
				c0.3,0,0.7,0,1,0C47.8,40.2,47.7,39.6,47.4,39.1z"/>
		</g>
		<path class="st5" d="M49.7,38.1c0.3,0,0.6,0,0.9,0c0,1.2,0,2.4,0,3.6c0.5,0,1,0,1.5,0c0,0.3,0.1,0.5,0.1,0.8c-0.8,0-1.6,0-2.5,0
			C49.7,41,49.7,39.6,49.7,38.1z"/>
	</g>
</g>
</svg>
