<?xml version="1.0" encoding="utf-8"?>
<!-- Generator: Adobe Illustrator 27.4.0, SVG Export Plug-In . SVG Version: 6.00 Build 0)  -->
<svg version="1.1" id="Capa_1" xmlns="http://www.w3.org/2000/svg" xmlns:xlink="http://www.w3.org/1999/xlink" x="0px" y="0px"
	 viewBox="0 0 263 66.5" style="enable-background:new 0 0 263 66.5;" xml:space="preserve">
<style type="text/css">
	.st0{fill:#8C98A4;}
</style>
<g>
	<g>
		<path class="st0" d="M10.1,0.3c17.3-0.5,34.4,0,51.7-0.3c2.7,0,5.7-0.5,7.4,2c2.7,4,5,8,7.2,12.2c1.3,1.9,0.5,4-0.5,5.7
			c-8.5,14.3-17,28.8-25.4,43c-1.1,1.6-2.7,3.7-4.8,3.5c-4.8,0-9.7,0-14.5,0c-2.7,0-4.3-2.7-5.6-4.8C18.3,49.2,11,36.6,3.3,23.8
			c-1.3-2.7-4-5.3-3.2-8.8c1.6-3.7,4-6.9,5.7-10.2C7.3,3.1,8.1,0.8,10.1,0.3z M10.5,11.9c9.3,15.9,18.7,32.2,28,47.8
			c9.4-15.9,18.7-31.9,28-47.8C48.1,11.9,29.5,11.9,10.5,11.9z"/>
	</g>
	<path class="st0" d="M168,11.3c2,0,4.3,0,6.2,0c0,4.8,0.3,9.7,0,14.5c0,3.2-3.2,5.6-6,5.6c-5,0.3-10,0.5-15-0.5
		c-2.4-0.5-3.7-3.2-4-5.3c-0.3-4.8,0-9.6,0-14.2c2,0,4.3,0,6.5,0c0.3,4.5-0.3,9,0.3,13.4c2.9,2.4,7.4,1.3,11.2,0.8
		C169.1,21.7,167.4,16.1,168,11.3z"/>
	<path class="st0" d="M199.6,11.3c2,0,4.3,0,6.2,0c0,6.5,0,13.3,0,19.8c-3.2,0-6.5,0-9.7,0c-3.7-4.8-7.4-9.6-11.2-14
		c0,4.8,0,9.6,0,14c-2,0-4.3,0-6.2,0c0-6.5,0-13.3,0-19.8c3.2,0,6.2,0,9.6,0c4,4.5,7.4,9.6,11.4,14
		C199.6,20.9,199.6,16.1,199.6,11.3z"/>
	<path class="st0" d="M81.2,11.3c8-0.3,15.7,0,23.5,0c0,1.6,0,3.5,0,5c-2.9,0-5.7,0-8.8,0c0,5,0,10,0,14.7c-2,0-4.3,0-6.2,0
		c0-5,0-10,0-14.7c-2.9,0-5.7,0-8.8,0C81.2,14.8,81.2,13.3,81.2,11.3z"/>
	<g>
		<path class="st0" d="M109.2,11.3c6.5,0,13.3,0,19.5,0c5.7,0,6.2,8.8,2.7,12c2.4,2,2,5.3,2,8c-2,0-4,0-6,0
			c-0.3-1.6-0.5-3.5-0.8-5.3c-3.7,0-7.4,0-11.2,0c0,1.6,0,3.5,0,5c-2,0-4.3,0-6.2,0C109.2,24.9,109.2,18.1,109.2,11.3z M115.5,16.7
			c0,1.6,0,3.2,0,4.5c3.7,0,7.2,0.3,10.8-0.3c1.3-0.8,1.3-3.2,0.5-4.3C123.2,16.4,119.5,16.7,115.5,16.7z"/>
	</g>
	<path class="st0" d="M137.9,11.3c2,0,4.3,0,6.5,0c0,6.5,0,13.4,0,20.2c-2,0-4.3,0-6.2,0C137.9,24.9,137.9,18.1,137.9,11.3z"/>
	<path class="st0" d="M210.5,11.3c6.9,0,14,0,21,0c0,1.6,0,3.5,0,5c-4.8,0-9.7,0-14.5,0c0,0.8,0,2.7,0,3.5c4.5,0,9.3,0,13.7,0
		c0,1.6,0,3.2,0,4.8c-4.5,0-9.3,0-13.7,0c0,2.4,0,4.5,0,6.5c-2,0-4.3,0-6.2,0C210.5,24.9,210.5,18.2,210.5,11.3z"/>
	<g>
		<path class="st0" d="M239.8,11.9c4.8-1.1,10-0.5,14.7-0.5c3.2,0,6.9,0.5,8,4c0.8,3.7,0.3,7.7,0.3,11.4c-0.3,3.5-4,5-7.2,5
			c-5.3,0-11.2,0.5-16.5-0.5c-4-1.3-4-6.2-4-9.7C235.6,18.1,235.6,13.1,239.8,11.9z M243,17.6c-1.6,2.9-2,9.7,2.9,9
			c3.5-0.3,7.4,1.1,10.2-1.1c0.5-2.4,0.5-5,0-7.4c-1.9-1.6-4.5-0.8-6.9-1.1C247.3,16.9,244.9,16.4,243,17.6z"/>
	</g>
	<path class="st0" d="M17.7,16.9c5.3,0,10.5,0,15.9,0c1.6,1.9,3.2,3.7,4.5,5.7c0.5,7.7,0,15,0.3,22.7c-1.6,0-3.5,0-5,0
		c0-8,0-15.9,0-23.8c-4.3,0-8.8,0-13,0C19.1,20.1,18.3,18.5,17.7,16.9z"/>
	<path class="st0" d="M43.9,16.9c5.3,0,10.5,0,15.9,0c-0.5,1.6-1.3,3.2-2,4.8c-4.5,0-8.8,0-13.3,0c0,8,0,15.9,0,23.8
		c-1.6,0-3.2,0-4.8,0c0-7.7,0-15.3,0-23C40.8,20.6,42.3,18.8,43.9,16.9z"/>
	<path class="st0" d="M114,38.6c4.3,0,8.5,0,12.8,0c0,0.8,0,2.4,0,3.2c-2.9,0-6,0-9,0c0,0.8,0,2.7,0,3.5c2.7,0,5.3,0,8,0
		c0,0.8,0,2.4,0,3.2c-2.7,0-5.3,0-8,0c0,0.8,0,2.7,0,3.5c3.2,0,6.2,0,9.3,0c0,1.1,0,2,0,3.2c-4.3,0-8.8,0-13,0
		C114,49.7,114,44.3,114,38.6z"/>
	<path class="st0" d="M91.3,46.3c-1.9-2.9,0-6.9,3.2-7.7c2.9-1.1,5.7,0.5,8.5,1.6c-0.5,1.1-1.3,1.9-1.9,2.9c-2-1.1-7.7-3.2-6.5,1.1
		c2.4,1.1,4.8,1.3,6.9,2.7c2.9,1.9,2,6.9-0.8,8.2c-3.5,1.9-7.4,0.5-10.2-1.3c0-1.3,0.8-2,1.3-3.2c2,1.3,8,4,7.7-0.5
		C96.7,48.5,93.3,48.5,91.3,46.3z"/>
	<path class="st0" d="M141.4,39.4c3.7-2.4,8-1.1,11.4,0.5c-0.8,1.1-1.6,2-2.4,2.9c-2.7-1.9-7.2-2.7-8.8,1.1
		c-2.9,4.5,2.7,10.8,7.4,7.4c0-0.8,0.3-2,0.5-2.7c-1.3,0-2.7,0-4,0c0-1.1,0-2,0-3.2c2.7,0,5,0,7.7,0c0,2.7,0,5,0,7.7
		c-3.7,2.4-8.8,3.5-12.5,0.8C135.9,50.8,136.2,42.3,141.4,39.4z"/>
	<path class="st0" d="M164.6,38.6c0.8,0,2.9,0,3.7,0c0,3.7-0.3,7.7,0.3,11.4c0.5,2.9,5.3,3.2,6,0.3c0.8-3.7,0.3-8,0.3-11.7
		c0.8,0,2.9,0,3.7,0c-0.3,4.3,0.5,8.8-0.5,13c-2,5.3-11.4,5.3-13.4-0.3C164.1,47.3,164.6,42.8,164.6,38.6z"/>
	<g>
		<path class="st0" d="M190.7,38.6c4.3,0.3,9-1.1,12.8,1.6c2.7,2.9,1.3,7.4-2,9.6c1.3,1.9,2.7,3.7,4,5.7c-1.6,0-2.9,0-4.5,0
			c-1.1-1.9-2.4-3.7-3.7-5.3c-0.8,0-2,0-2.9,0c0,1.9,0,3.7,0,5.3c-0.8,0-2.9,0-3.7,0C190.7,49.7,190.7,44.3,190.7,38.6z M194.4,41.8
			c0,1.6,0,3.5,0,5c2-0.3,6.2,0.8,6.5-2.7C200.8,41.1,196.5,41.8,194.4,41.8z"/>
	</g>
	<g>
		<path class="st0" d="M220.3,39.1c5.7-2.9,13.7,1.6,13,8.5c-0.3,6.5-8.5,10.2-13.7,6.9C213.8,51.3,214.2,41.5,220.3,39.1z
			 M221.4,42.3c-3.2,2-3.2,8.2,0.8,9.6c3.5,2,7.7-1.6,7.2-5.6C229.3,42.6,224.5,40.3,221.4,42.3z"/>
	</g>
	<path class="st0" d="M244.1,45.2c-1.1-2.9,1.1-6.2,4.3-6.5c2.9-0.8,5.3,0.5,8,1.6c-0.5,1.1-1.1,2-1.9,2.9c-2-0.8-5.7-3.2-6.9,0
		c1.9,2.9,6,1.9,8.2,4.5c1.3,2,1.1,5.7-1.3,7.2c-3.5,2.4-8,0.5-11.2-1.3c0.5-0.8,1.3-2,1.9-2.9c2.4,1.1,6.2,3.7,8,0.3
		C251.3,47.6,245.1,49.2,244.1,45.2z"/>
</g>
</svg>
